<svg id="Layer_1" data-name="Layer 1" xmlns="http://www.w3.org/2000/svg" width="727.27" height="213.67" viewBox="0 0 727.27 213.67"><defs><style>.cls-1{fill:#7390a6;}.cls-2{fill:#1d1d1b;}.cls-3{fill:#c3d0dd;}.cls-4{fill:#fff;}.cls-5{fill:#9bbdd5;}</style></defs><title>polytechnic-university-of-milan-logo_freelogovectors.net</title><path class="cls-1" d="M222.84,382.81a102.11,102.11,0,1,1,.1-2" transform="translate(-13.5 -269.31)"/><path class="cls-2" d="M120.6,483l-.09-9.46,1.77,0,.09,9.46Zm-3.23,0-1.77-.07.39-9.45,1.77.07Zm8.23-.08-.57-9.44,1.77-.11.56,9.44Zm-13.16-.18-1.77-.14.75-9.43,1.76.14Zm18.08-.18-.92-9.41,1.76-.18.92,9.42Zm-23.06-.3-1.75-.23,1.22-9.38,1.75.23Zm28-.28-1.39-9.36,1.75-.26,1.39,9.36Zm-33-.43-1.74-.32,1.69-9.3,1.75.31Zm37.91-.38-1.87-9.28,1.74-.35,1.86,9.28Zm-42.76-.55-1.73-.39,2-9.24,1.73.38Zm47.64-.51L143,470.89l1.72-.43,2.32,9.17Zm-52.5-.66-1.7-.47,2.5-9.13,1.71.47Zm57.27-.6-2.66-9.08,1.7-.5,2.66,9.08ZM88,478l-1.69-.55,3-9L91,469Zm66.82-.7-3.1-8.94,1.67-.58,3.1,8.94Zm-71.55-.91-1.65-.64,3.4-8.83,1.65.63Zm76.24-.82L156,466.8l1.64-.66,3.54,8.77Zm-80.83-1-1.63-.7,3.73-8.7,1.63.7Zm85.42-.92-4-8.59,1.6-.75,4,8.6Zm-90-1.13-1.59-.78,4.15-8.51,1.59.78Zm94.48-1-4.37-8.39,1.57-.81,4.37,8.39ZM69.7,470.24l-1.56-.85,4.56-8.29,1.55.85ZM173,469.13,168.24,461l1.53-.9,4.77,8.17ZM65.36,467.77l-1.51-.93,5-8.06,1.5.93Zm111.93-1.2-5.15-7.94,1.48-1,5.16,7.93ZM61.14,465.1l-1.46-1L65,456.29l1.46,1Zm120.25-1.26L176,456.09l1.45-1,5.43,7.74Zm-124.33-1.6-1.41-1.07,5.71-7.54,1.41,1.07Zm128.36-1.35-5.8-7.47,1.4-1.09,5.8,7.48ZM53.16,459.22l-1.37-1.12,6-7.33,1.38,1.12Zm136.14-1.46-6.15-7.19,1.35-1.15,6.14,7.19ZM49.36,456,48,454.81l6.32-7L55.68,449ZM193,454.46l-6.48-6.89,1.29-1.21,6.48,6.88ZM45.71,452.6l-1.26-1.25,6.65-6.73,1.26,1.24ZM196.61,451l-6.8-6.58,1.22-1.27,6.81,6.57ZM42.22,449,41,447.73l7-6.41,1.2,1.3ZM200,447.35l-7.12-6.24,1.16-1.33,7.12,6.24Zm-161.12-2L37.77,444,45,437.89l1.13,1.35Zm164.36-1.75-7.41-5.9,1.1-1.38,7.41,5.89Zm-167.5-2.12L34.7,440l7.55-5.71,1.06,1.41Zm170.55-1.82-7.68-5.53,1-1.43,7.68,5.52Zm-173.51-2.2-1-1.46,7.81-5.34,1,1.45Zm176.35-1.84-7.88-5.24,1-1.47,7.88,5.24ZM30,433.27l-.93-1.51,8.06-5,.93,1.5Zm181.8-1.89-8.12-4.86.91-1.52,8.12,4.86ZM27.51,429l-.88-1.54,8.23-4.67.87,1.54Zm186.81-2L206,422.59l.83-1.56,8.34,4.46Zm-189.18-2.4-.8-1.58,8.44-4.26.8,1.57Zm191.46-2-8.55-4.05.75-1.6,8.56,4.05ZM23,420.16l-.72-1.61,8.64-3.86.72,1.61Zm195.7-2.1-8.74-3.62.67-1.63,8.75,3.62ZM21,415.57l-.63-1.65,8.81-3.43.64,1.65Zm199.51-2.15-8.91-3.18.6-1.67,8.91,3.19ZM19.28,410.89l-.56-1.68,9-3,.56,1.68Zm202.85-2.13-9-2.85.54-1.69,9,2.85ZM17.76,406.13l-.48-1.71,9.12-2.54.47,1.7ZM223.54,404l-9.16-2.39.45-1.72,9.16,2.4ZM16.47,401.31l-.39-1.73,9.22-2.09.4,1.72Zm208.25-2.2-9.26-1.93.36-1.74,9.27,1.93ZM15.43,396.48l-.32-1.74L24.4,393l.33,1.74Zm210.25-2.28-9.35-1.46.28-1.75,9.34,1.46ZM14.6,391.55l-.24-1.76,9.37-1.27.24,1.75Zm211.79-2.24L217,388.2l.21-1.75,9.4,1.1ZM14,386.59l-.15-1.76,9.43-.81.15,1.77Zm213-1.69-9.44-.63.12-1.76,9.44.62ZM13.64,381.67l-.08-1.77,9.44-.45.09,1.77Zm213.48-1.25-9.46-.32.06-1.78,9.46.33ZM23,376.69l-9.46,0V374.9l9.47,0Zm194.78-1.11,0-1.78,9.46-.15,0,1.78ZM23,372.17l-9.45-.5.09-1.77,9.45.51Zm194.58-1.12-.11-1.76,9.44-.63.12,1.77ZM23.34,367.6l-9.42-.86.16-1.76,9.42.86Zm193.93-1.12-.18-1.76,9.41-1,.18,1.76ZM23.84,363.11l-9.37-1.34.25-1.75,9.37,1.34ZM216.73,362l-.27-1.75,9.35-1.44.27,1.75Zm-192.2-3.35-9.28-1.81.34-1.73,9.28,1.81ZM216,357.53l-.36-1.74,9.27-1.9.36,1.74Zm-190.5-3.37L16.25,352l.41-1.73,9.21,2.16ZM215,353.1l-.43-1.72,9.17-2.34.43,1.71ZM26.58,349.78l-9.09-2.63.49-1.7,9.09,2.63Zm187.26-1-.52-1.7,9-2.79.52,1.69ZM27.9,345.44,19,342.37l.58-1.67,9,3.07Zm184.53-1.08-.59-1.67,8.94-3.12.58,1.67Zm-183-3.18-8.78-3.51.65-1.64,8.79,3.51Zm181.43-1.07-.66-1.64,8.77-3.55.66,1.64ZM31.14,337l-8.6-3.94.74-1.61,8.6,3.94Zm177.93-1.06-.74-1.61,8.59-4,.74,1.61Zm-176-3.09-8.46-4.26.8-1.58,8.45,4.26Zm174-1-.81-1.57,8.39-4.37.81,1.57Zm-171.89-3L27,324.18l.87-1.54,8.24,4.66Zm169.73-1-.89-1.53,8.18-4.77.89,1.53ZM37.5,324.93l-8-5.05.94-1.5,8,5.06ZM202.6,324l-1-1.48,7.93-5.15,1,1.49ZM40,321.13l-7.74-5.43,1-1.45L41,319.68Zm160.11-.92-1-1.43,7.68-5.52,1,1.43ZM42.62,317.46l-7.47-5.8,1.08-1.4,7.48,5.8Zm154.77-.9-1.1-1.38,7.42-5.88,1.1,1.39ZM45.44,313.9l-7.19-6.15,1.15-1.34,7.19,6.15ZM194.53,313l-1.17-1.33,7.14-6.22,1.16,1.33ZM48.42,310.49,41.53,304l1.22-1.29,6.88,6.49Zm143.09-.83-1.23-1.28,6.83-6.55,1.23,1.28ZM51.6,307.18,45,300.45l1.26-1.25,6.65,6.74Zm136.73-.77-1.28-1.22,6.51-6.86,1.29,1.22ZM54.89,304.05l-6.32-7,1.32-1.18,6.31,7.05ZM185,303.31l-1.33-1.15,6.18-7.16,1.34,1.16Zm-126.7-2.22-6-7.33,1.37-1.13,6,7.34Zm123.2-.74-1.38-1.1,5.92-7.38,1.38,1.11ZM61.87,298.28l-5.62-7.62,1.43-1.05,5.62,7.62Zm116-.69-1.43-1,5.57-7.65,1.43,1ZM65.56,295.64l-5.25-7.88,1.47-1L67,294.66ZM174.2,295l-1.48-1,5.2-7.91,1.48,1ZM69.36,293.17l-4.86-8.11,1.52-.91,4.86,8.11Zm101-.6-1.52-.9,4.81-8.15,1.53.9Zm-97.09-1.69-4.47-8.34,1.56-.83,4.48,8.34Zm93.15-.55-1.56-.83,4.41-8.37,1.57.83Zm-89.13-1.55-4.06-8.55,1.6-.75L78.89,288Zm85.09-.5-1.6-.76,4-8.57,1.6.75Zm-80.92-1.43-3.75-8.68,1.62-.7,3.75,8.68Zm76.79-.43-1.64-.67L160.2,277l1.64.67Zm-72.6-1.28-3.32-8.86,1.65-.62,3.32,8.86Zm68.39-.39-1.66-.59,3.14-8.92,1.67.59Zm-64.13-1.13-2.88-9,1.69-.54,2.88,9Zm59.85-.34-1.7-.5,2.71-9.07,1.7.51Zm-55.52-1-2.43-9.15,1.71-.45L96,281.85Zm51.11-.29-1.71-.45,2.37-9.16,1.71.45Zm-46.72-.83-2-9.25,1.73-.37,2,9.25ZM141,281l-1.73-.36,1.91-9.26,1.73.36Zm-37.82-.67L101.49,271l1.75-.31,1.63,9.32Zm33.38-.18-1.75-.27,1.45-9.35,1.75.27Zm-28.92-.52-1.16-9.39,1.76-.21,1.16,9.39Zm24.38-.12-1.76-.21,1.1-9.39,1.76.2Zm-19.88-.36-.69-9.44,1.76-.13.7,9.44Zm15.38-.08-1.77-.11.63-9.44,1.76.11Zm-10.87-.2-.21-9.46,1.77,0,.21,9.46Zm6.35,0-1.77,0,.15-9.46,1.77,0Z" transform="translate(-13.5 -269.31)"/><path class="cls-3" d="M103.79,379.64c0-.17,1,.57,1.13.31l2.48,3.31s3.89,2.19,4.52,1.82,1.22-1.37,1.63-1.45,1-.66,1.49-.73,1.1-1.27,1.1-1.27,1.73.41,1.79-.63.11-3.58.11-3.58a4.13,4.13,0,0,0,1.71-2.78c.41,0,2.69-.25,2.69-.25,1.89-.6,1.6-2.68,1.25-3.72s-2.54-2.32-2.54-2.32A1.66,1.66,0,0,0,121,366a2.62,2.62,0,0,0-2.18-1.65l-1-.15-4.64-2.57-8-.35L97.77,371l-2.53-1.13v-6.65l3.12-8.63,3.35-3.3,3.44,2.83,11.12.35s4.07.33,4.6-.52l2.45-3.86.12.24a3.14,3.14,0,0,1,.59.42,4.19,4.19,0,0,1,1.31.26c-.1-.18.3-.63,1.51-1.56,1.38-1,.28-2,.61-3.09a2.29,2.29,0,0,0-.65-2l8.84,2.68.17.09c-.55.94-.61,2.21-1.09,2.47-.71.39.2,2,0,2.88a1.5,1.5,0,0,0,.6,1.48l.42,0a17.3,17.3,0,0,0,.19,3.34,7.9,7.9,0,0,0,1.51,3.52h0l-.28.14a5.2,5.2,0,0,1-1,1.9c-.53.37-3.1,3.72-2.61,5.91s1.59,6,1.59,6l1.06-.13,0,.3a11.82,11.82,0,0,1-1.34,3c-.36.33-2,1.35-3.5,5.71l-.09,0s-1.64-1.4-3.78.56c-1.47,1.36-1.78,1.63-1.83,1.67h0c-1.45,2-1.35,1.8-1.55,2.31a31.07,31.07,0,0,0-.84,3.76c0,.41-.09,1.3-.31,1.46s-1.44,1-1.57.82-1.18-1.71-1.66-1.81-1.24-.18-.93.5-1.9.33-.38,1.64l1.52,1.31a7.41,7.41,0,0,0,2.24,1.37,2.78,2.78,0,0,0,3-1h.21a7.71,7.71,0,0,1-.47,1.93c-.34.53-.94,2.44-.72,2.73,0,0,.6,1.86,1.55.52l1-1.33,1-1.64.07,0c-.78,2.61-1.63,5.28-2.09,6.28-1,2.2-2.34,3.94-2.37,5.47,0,1.19-.27,2.73.42,3.94h-.12c-3-1.72-5,.73-8.14,1.78a26.6,26.6,0,0,1-6.54,1.15l0-.33c-2.76-.31-6.2-4.23-6.2-4.23l-5.42-5.32c1.52-7.39,4.81-7.83,4.81-7.83l-.14-.05c1.52-4,2.66-10.66,3.16-12.59a10.77,10.77,0,0,1-.23-2.6" transform="translate(-13.5 -269.31)"/><path class="cls-4" d="M106.25,360.83a7.3,7.3,0,0,0-1.8.85,28.91,28.91,0,0,1-3,2.23,35.25,35.25,0,0,0-3.94,3.6,3.67,3.67,0,0,0-.26,2.14c.17.43,1.72,4.34,1.8,4.71s1.46.73,1.63,1.26.33,1.52,2.4,2.6l-.41,3.26,1.12-.86s4.77.26,5.29-.68a9.89,9.89,0,0,1,3.45-3.18c1.26-.61,4.17-2.54,5-2.91s2.65.89,3.25.89,4.8-.92,3-3.39-2.74-3.67-2.57-4.27-.82-2.65-3.41-2.91a5.23,5.23,0,0,1-3.78-2.23Z" transform="translate(-13.5 -269.31)"/><path class="cls-4" d="M154.84,343.27s-4.48-1.81-5.66-2.07-6.47.85-8.14,1.8-2.57,1.59-2.83,2.32-2.6,1.37-2.6,2a30.13,30.13,0,0,1-1,3c-.08.51-.08,2.91.34,3.34s.28,2.83.66,3.34,1.23,3.66,2.86,4.8,3.89,1.71,4.21,2.31,2,4.15,2.73,3.71,1.37-1.48,2.4-1,3.51,1.12,5.05-.34,3.15-4.77,5-5.65a9.4,9.4,0,0,0,4.81-4.8c1-2.4,2.15-6.43,1.46-8.74a4.69,4.69,0,0,0-3.88-3.34c-1,0-5.37-.68-5.37-.68" transform="translate(-13.5 -269.31)"/><path class="cls-3" d="M158.06,407.46s1.67-27,19.4-48.18l0-.16a8.1,8.1,0,0,0,6.49-1.23l-.06-.08c-23.79-6.38-8.26-22-5.82-24.34l.14-.33c1.69.74,3.59-.83,9.83,2.59.5.28,3.32-1.68,4.47-1.71,1.87,0,6.31,4.38,6.94,5.33a6.13,6.13,0,0,1-.06,4.18c-.63,1.53-2.12,2.45-1.82,3.09,1.77,3.77,2.86,7.61,3.66,14.25a105.72,105.72,0,0,1,1.36,12.23c.24,4.81-.23,10-.12,13.75.2,6.43-4.88,18-4.88,24.86,0,2.08,1.07,11,4.17,11.82,0,0-10.38,1.13-14.81,1-1.87-.07-2.08-.05-4.16-.14-7.2-.31-14.61-.71-15.06-1.05l-.31.09c-.33-1.46-.79-4.18,0-5.67,1.06-2.1,12.59-18.15,11.8-29.54l-.09-.13h0a6.37,6.37,0,0,0-1.62,1.58c-1.77,2.49-9.07,8.54-13.89,12.42-1.61,1.3-2.95,2.35-3.71,2.95a22.05,22.05,0,0,0-1.83,2.46" transform="translate(-13.5 -269.31)"/><path class="cls-4" d="M157.63,427.51a12.16,12.16,0,0,1,.91-2.21,18.47,18.47,0,0,0,1.13-4.71c0-1.1.81-3.28,2-6.07s2.13-12.22,2.13-12.22l-.18-.25c4.83-3.88,12.12-9.93,13.89-12.42a6.37,6.37,0,0,1,1.62-1.58l.09.13c.78,11.4-10.74,27.44-11.8,29.54-.75,1.49-.28,4.21,0,5.67.14.6.26,1,.26,1s2.28,3.22,2.29,4.15-1.36,2.15-1.85,2.51-1.58.76-2.14,1.11a4.16,4.16,0,0,1-2.25.17,11.85,11.85,0,0,1-2.28-.6,10,10,0,0,1-2.71.22c-1.07-.14-1.16-1.37-1.3-2.85a4.44,4.44,0,0,1,.17-1.58" transform="translate(-13.5 -269.31)"/><path class="cls-3" d="M147.1,340.58a11.94,11.94,0,0,1,4.15-3.22,8.09,8.09,0,0,1,1.94-.58c2.81-1.7,8.05-4,13-4a24.7,24.7,0,0,1,7.12-.07v.6c-6.19,2.56-9.4,12.54-9.42,12.91l-.06,0c-.42-1.73-1.07-1.92-2.59-2.33-3.45-.95-6.92-.68-10.22-2.06l0,.12a15,15,0,0,1-2-.94,4.54,4.54,0,0,0-1.79,0l0-.46Z" transform="translate(-13.5 -269.31)"/><path class="cls-3" d="M163.89,346.26c0-.37,3.22-10.35,9.43-12.91a7.57,7.57,0,0,1,4.07-.51,6.11,6.11,0,0,1,.85.31l-.14.33c-2.44,2.29-18,17.95,5.83,24.33l.06.08a8.11,8.11,0,0,1-6.49,1.23c-6.84-1.42-13.18-9.74-13.18-9.74h-.06a18.33,18.33,0,0,0-.43-3.1Z" transform="translate(-13.5 -269.31)"/><path class="cls-3" d="M142.68,388.27c1.45-3,2.39-5.94,2.17-8.32l3.15-6.74-.55-.25a7.41,7.41,0,0,0,2.75-1.64c1.21-1.36,4.64-7,4.64-7h0a16,16,0,0,0,1-1.58s-.3-.64,1.36-2.19l.34-.38.57-.44.37-.38s2.94.64,2.81,1.56-1.52,6.07-1.67,7.15a6.36,6.36,0,0,0,.26,3.48,20.68,20.68,0,0,1,1.17,6.17,63.3,63.3,0,0,1-1.3,7.56c-.09.41-.18.75-.24,1l-.13.12a53.82,53.82,0,0,0-5.4.27h0a87.4,87.4,0,0,0-11,1.73Z" transform="translate(-13.5 -269.31)"/><path class="cls-3" d="M152.41,410.29c-2.68-6.87,2.3-12.85,2.85-14.29a23.93,23.93,0,0,1,2.14-3.71l1.78-4.84.28-1.19q.1-.4.24-1a63.3,63.3,0,0,0,1.3-7.56,20.68,20.68,0,0,0-1.17-6.17,6.36,6.36,0,0,1-.26-3.48c.15-1.08,1.54-6.24,1.67-7.15s-3.84-.48-3.84-.48l-.25-.45.3-.63.61-1.64c.27-.13,1.83-1.08,2.15-1.2,3.4-1.25,4.07-5.5,4.07-5.5s0-.65,0-1.59h.07s6.33,8.32,13.16,9.74l0,.16c-17.73,21.15-19.4,48.18-19.4,48.18a22.05,22.05,0,0,1,1.83-2.46c.76-.6,2.1-1.65,3.71-2.95l.17.25s-1,9.43-2.12,12.22-2,5-2,6.07a17.89,17.89,0,0,1-1.12,4.7,12.62,12.62,0,0,0-.91,2.22l1.66-5s-3.09,1.2-4-2.83Z" transform="translate(-13.5 -269.31)"/><polygon class="cls-4" points="139.26 165.76 110.61 174.17 110.5 171.73 110.5 171.73 110.61 169.89 139.4 161.75 139.26 165.76"/><path class="cls-3" d="M133.48,368.78c-.49-2.19,2.08-5.53,2.61-5.91a5.2,5.2,0,0,0,1-1.9l.28-.14a4.59,4.59,0,0,0,1.29,1.1l1.68,1.35s1.06.2,1.3.22a1.87,1.87,0,0,1,1.33,1c.33.71,1.11,3.53,2.7,3.06l1.13-1.06s1.66.65,2,.8,2.89,1.44,6-3h0s-3.43,5.66-4.64,7a7.34,7.34,0,0,1-2.75,1.64,14.22,14.22,0,0,1-1.5.47l-9.82,1.18-1.06.13s-1.11-3.77-1.59-6" transform="translate(-13.5 -269.31)"/><path class="cls-3" d="M145.86,327.91h0a4.25,4.25,0,0,0,.71-.74c.72-.93.23-3.12.25-3.43a2.18,2.18,0,0,1,.81-1.39c.54-.43.54-2.13.56-2.48s.61-.74.94-1.13-.22-2.28-.29-2.85a3.1,3.1,0,0,1,.27-1.48l.37.14a23.57,23.57,0,0,1,11.11,9.55s1.59,2.77,1.6,4.17v.67h0l-.11.17a19.35,19.35,0,0,1,3.77,3.41l-1.09.3a32.06,32.06,0,0,0-11.57,4,8.09,8.09,0,0,0-1.94.58l-.08-.18c-6.42-4.56-5.27-9.22-5.27-9.22l0,0Z" transform="translate(-13.5 -269.31)"/><path class="cls-4" d="M140.79,417.94c-2.28-.29-1.89-2.75-1.89-2.75s1-3,1.14-3.44a10.54,10.54,0,0,0,.06-3c-.11-.92.86-3.2,1.77-4.48s.68-4.46.64-5.22-.12-8.79-.12-8.79l-.14-.08h0c.37-.65.7-1.3,1-2l.2.1a82,82,0,0,1,10.47-1.64l0,.44c-.62,8-2.5,10.79-2.5,10.79s-3.87,5.92-4.4,6.67-.42,2.91-.4,3.44a9.13,9.13,0,0,1-.36,1.79c-.24.91.49,2.37,1.09,3.14s1.48,1.31,1.83,2.11-.61,2-1.82,2.63-4.34.57-6.61.28" transform="translate(-13.5 -269.31)"/><path class="cls-4" d="M128.59,313.8c0-1.07,1.18-4.19,1.27-4.76a18.73,18.73,0,0,1,1.46-3.92,9.92,9.92,0,0,1,1-1.34h0a25.33,25.33,0,0,1,2.28-2.32,23.26,23.26,0,0,1,4-1.26s4.1-.42,6.33,1.87c0,0,2.51.1,3.23,1.68s2.12,4.21,2,5-.61,1.56-.53,2a14.13,14.13,0,0,1-.41,3.48l-.09.24a3.1,3.1,0,0,0-.27,1.48c.07.57.62,2.46.29,2.85s-.92.77-.94,1.13,0,2.05-.56,2.48a2.14,2.14,0,0,0-.8,1.39c0,.31.46,2.5-.26,3.44a4.52,4.52,0,0,1-.7.73h0c-.41.32-.72.37-.85.19s-.69.72-.7.64l-.22.64s-.17,1.55-.53,1.42-.92-1.8-.92-1.8l.64-3.72.47-4.6v-.21l3.6-5.86a6.27,6.27,0,0,0-.8-2.92,7.71,7.71,0,0,1-1.77-2.32c-.07-.52-.48-2.24-.48-2.24s-2.65,2.15-3.23,2.49-2.52-.05-3-.08a2.5,2.5,0,0,0-2,.9c-.3.6-1.34,2.45-1.61,2.84a10,10,0,0,0-.61,3.26,2.26,2.26,0,0,1-.46,1.23,5.23,5.23,0,0,0-.6,1c-.24.65.08,1.28.22,2.32a11.82,11.82,0,0,1-.2,3.28c-.13.51-1,.51-1.2.5a7.21,7.21,0,0,0-1.33.64s.24-1.43.32-1.79a22.18,22.18,0,0,0-1.11-3.1,55.61,55.61,0,0,1-.88-6.79" transform="translate(-13.5 -269.31)"/><path class="cls-4" d="M126,430.14l-1,.24,1-7.21h0a8.36,8.36,0,0,0,.85-2.12,22.67,22.67,0,0,1,2-5.69,3.78,3.78,0,0,1,2.67-1.57l.18,1.86,1.84,13-.35.94-3.43-8.91Z" transform="translate(-13.5 -269.31)"/><path class="cls-4" d="M133.83,316.54a10,10,0,0,1,.6-3.26c.29-.39,1.32-2.24,1.62-2.84a2.58,2.58,0,0,1,2-.91c.52,0,2.45.41,3,.09s3.23-2.49,3.23-2.49.41,1.72.48,2.24a7.55,7.55,0,0,0,1.77,2.32,6.15,6.15,0,0,1,.8,2.92l-3.59,5.86,0,.21-.19,0a11.25,11.25,0,0,1-6.45,2.09c-2.28-.6-3.51-4.94-3.51-4.94l-.23,0h0a2.23,2.23,0,0,0,.46-1.23" transform="translate(-13.5 -269.31)"/><polygon class="cls-4" points="95.28 164.85 111.46 161.07 112.5 160.82 118.4 159.45 119.37 159.22 122.93 158.39 139.39 161.74 110.61 169.89 95.28 164.85"/><path class="cls-4" d="M123.27,410.12c0-1.53,1.37-3.27,2.37-5.47.46-1,1.31-3.67,2.09-6.28.94-3.12,1.79-6.15,1.79-6.15a43.44,43.44,0,0,1,1.8-8.61c1.48-4.37,3.14-5.39,3.5-5.72a11.92,11.92,0,0,0,1.35-3l0-.3,9.82-1.18a14.22,14.22,0,0,0,1.5-.47l.55.25L144.85,380c.22,2.38-.72,5.32-2.17,8.32-.33.69-.68,1.38-1.06,2.07-3.55,6.49-8.76,12.7-9,13.46-.38,1.23-.53,2.14.45,6.31a6.5,6.5,0,0,1-1.18,5.52l-.23,0-.17-1.86a3.82,3.82,0,0,0-2.67,1.57,22.67,22.67,0,0,0-2,5.69,8,8,0,0,1-.85,2.12h0c-1.11,0-1-1.53-1-1.53l-.4-6.65a3,3,0,0,1-.82-.93c-.69-1.21-.43-2.75-.42-3.94" transform="translate(-13.5 -269.31)"/><polyline class="cls-5" points="112.12 116.48 112.12 116.48 112.13 116.48 112.12 116.48"/><path class="cls-5" d="M125.62,385.8h0Z" transform="translate(-13.5 -269.31)"/><path class="cls-4" d="M118.37,394.48c-1.52-1.31.69-1,.38-1.64s.45-.6.93-.5,1.53,1.62,1.66,1.81,1.36-.66,1.57-.82.33-1.05.32-1.46a29.22,29.22,0,0,1,.83-3.76c.2-.52.1-.34,1.55-2.31h0s.36-.31,1.84-1.67c2.13-2,3.77-.56,3.77-.56l.09,0a43.73,43.73,0,0,0-1.8,8.62s-.85,3-1.79,6.15l-.07,0-1,1.64-1,1.33c-1,1.34-1.55-.52-1.55-.52-.22-.3.38-2.2.72-2.73a7.71,7.71,0,0,0,.47-1.93h-.21a2.76,2.76,0,0,1-3,1,7.41,7.41,0,0,1-2.24-1.37Z" transform="translate(-13.5 -269.31)"/><path class="cls-5" d="M125.61,385.8Z" transform="translate(-13.5 -269.31)"/><path class="cls-3" d="M126.81,344.34s.17-.84.19-1.22-1-1.23-1.19-1.31.11-.6-.17-1.13a10,10,0,0,1-.54-1.88,2.84,2.84,0,0,0-.07-.45h0s2.27-3.67,2.44-3.92c0,0,3.16-4.75,0-12.71-.49-1.24-2.39,1.07-2.48,1.18h0c.43-.63.63-1.63,0-3.17-1.09-2.49-5.34-4.44-6.86-5a2.27,2.27,0,0,0-1.29-.1l-.06-.49a5.3,5.3,0,0,1,1-5.91c2.6-3.08,3.44-3.49,4.53-3.63l3-.39s3.59-2.6,7-.36h0a9.92,9.92,0,0,0-1,1.34,18.58,18.58,0,0,0-1.46,3.93c-.09.56-1.26,3.68-1.27,4.75a55.61,55.61,0,0,0,.88,6.79,22.64,22.64,0,0,1,1.11,3.1c-.08.36-.32,1.79-.32,1.79a7.21,7.21,0,0,1,1.33-.64c.19,0,1.07,0,1.2-.5a11.82,11.82,0,0,0,.2-3.28c-.14-1-.46-1.67-.22-2.32a5.23,5.23,0,0,1,.6-1h0l.23,0s1.23,4.34,3.51,4.94a11.29,11.29,0,0,0,6.46-2.09l.19,0-.47,4.6-.64,3.72s.57,1.68.92,1.8.64-1.61.64-1.61l.23-.71c0,.08.4-.62.58-.37s.44.12.84-.2h0l0,0s-1.15,4.66,5.26,9.22l.09.18a11.94,11.94,0,0,0-4.15,3.22h0l0,.46c-.64.07-1.25.16-1.49.2a20,20,0,0,1-2.81.84c-.51,0-1.76,1-3.17,1.44s-.63,2.23-2.54,2.61a2,2,0,0,0-1.31,1" transform="translate(-13.5 -269.31)"/><path class="cls-4" d="M110.5,336.54c.2-1.42,1.36-3.44,2-3.67a7.12,7.12,0,0,1,5.25-.57s1.17,1,1.39,1.21a10.87,10.87,0,0,1,1.87,1,2,2,0,0,1,.73,1.28,12.5,12.5,0,0,0,.91,1.48,15.47,15.47,0,0,1,.82,2.49c0,.34.35,1.94.33,2.18s.6,2.23,0,2.73.15,5.34-.57,5.7c-.85,1.28-1.55,3.3-2.86,3.69a16.28,16.28,0,0,1-7.06,0l.66-6.62a10,10,0,0,0-.47-1.4,9.46,9.46,0,0,1-.85-3.85,5,5,0,0,0-1-2.77,3.51,3.51,0,0,1-1.14-2.88" transform="translate(-13.5 -269.31)"/><path class="cls-4" d="M105.88,382.23l-1.41.42-1-2.78c.43-.79,3.91-.25,4.24-.53s1.46.11,1.59-.38.74-.38,1.38-.85.78-1,1.2-1.06a2.17,2.17,0,0,0,1.19-.95c.12-.31,1-.46,1.58-.63a22.79,22.79,0,0,0,2.88-1.68,1.72,1.72,0,0,1,1.55-.22c.51.14.66,1.07.66,1.07a4.13,4.13,0,0,1-1.71,2.78S118,380,117.93,381s-1.79.62-1.79.62-.58,1.2-1.1,1.27-1.08.65-1.49.73a9.62,9.62,0,0,0-1.82,1c-.63.37-3.63-.84-3.63-.84Z" transform="translate(-13.5 -269.31)"/><path class="cls-4" d="M108.92,323.44a2,2,0,0,1-1.92-1c-.17-.34,1.53-1,1.53-1a10.14,10.14,0,0,1,3.73-1.24l.85-.08a4.74,4.74,0,0,1,3.46.55l1.5.92.3,0h0c-.19-.35-.37-.65-.39-.73a.91.91,0,0,1,.08-1c.3-.43,1.06-.1,1.16,0a9.84,9.84,0,0,0,1.13,1.1c.61.5.52,0,1,2.31a3.39,3.39,0,0,1,.1,1.17c-.17,1.18-1.44,1.16-3.06,1.95a4.78,4.78,0,0,1-4.09-.1s-3.1-2.92-3.3-3.22-.53-.26-.8.05-.12.35-1.32.37" transform="translate(-13.5 -269.31)"/><path class="cls-3" d="M113.1,319.87s0-3,.85-3.7a6.57,6.57,0,0,1,2.85-1.61,2.27,2.27,0,0,1,1.29.1c1.52.61,5.77,2.57,6.86,5a3.16,3.16,0,0,1,0,3.18,2.38,2.38,0,0,1-.91.77,12.28,12.28,0,0,1-2.56.74h0a3.37,3.37,0,0,0-.1-1.17c-.52-2.28-.43-1.82-1-2.31a10.34,10.34,0,0,1-1.14-1.1c-.1-.07-.86-.41-1.16,0a.91.91,0,0,0-.08,1,7.53,7.53,0,0,0,.4.73h0l-.29,0-1.51-.92a4.67,4.67,0,0,0-3.45-.55l0-.17Z" transform="translate(-13.5 -269.31)"/><polygon class="cls-4" points="95.28 164.85 110.61 169.89 110.5 171.73 110.5 172.37 110.61 172.75 110.48 174 95.14 168.97 95.28 164.85 95.28 164.85"/><path class="cls-4" d="M109.08,354.68c-.75-.55-3.81.21-4.18-.73s-.93-1.17-2.93-2.6.17-3.25.68-3.37.31-.46.31-.46c0-.25.44-.83,1.18-1.52s.4-.59.56-2.73,1.15-2.61,1.15-2.61a6.11,6.11,0,0,1,.74-4.27c0-1.44,2.19-2.79,2.19-2.79a2.81,2.81,0,0,1,3.64-1.55l2-.87a5.88,5.88,0,0,0,1.59-.08,4.2,4.2,0,0,1,2-.2,1.79,1.79,0,0,1,1.51.9s1.33.11,1.51.81,1.79.38,1.57,2a5.66,5.66,0,0,1,1,2c0,.67,1.13.45,1.46,1.73,0,.14,0,.28.07.45a10,10,0,0,0,.54,1.88c.29.53,0,1.05.16,1.14s1.23.91,1.2,1.3a11.93,11.93,0,0,1-.19,1.22,2.29,2.29,0,0,1,.65,2c-.33,1.07.77,2.06-.61,3.09-1.21.93-1.61,1.38-1.51,1.56a9.17,9.17,0,0,0-1.47-.53,6.31,6.31,0,0,1-.81-.36,2.12,2.12,0,0,1-.73-.7c-.14-.27-.59-.35-.47-3l-.2-.39a11.44,11.44,0,0,0,2.12-1.38c.61-.52,0-2.52,0-2.74s-.31-1.84-.33-2.18a14.06,14.06,0,0,0-.61-2,3.79,3.79,0,0,0-.21-.51,12.5,12.5,0,0,1-.91-1.48,2,2,0,0,0-.73-1.28,10.51,10.51,0,0,0-1.88-1l-1.39-1.21a7.1,7.1,0,0,0-5.24.57c-.63.24-1.79,2.24-2,3.67a3.52,3.52,0,0,0,1.14,2.88,5,5,0,0,1,1,2.77,9.46,9.46,0,0,0,.85,3.85,10.29,10.29,0,0,1,.47,1.39,5.74,5.74,0,0,1,.19,3,8.86,8.86,0,0,0-.48,2.87c0,.73-1.32,1.42-1.45,1.56s-2.39.35-3.13-.2" transform="translate(-13.5 -269.31)"/><path class="cls-4" d="M82.11,313.47c-.51-1.35,2.15-2.91,2.15-3-.11-1.67,2.13-1.53,2.13-1.53.08-1.39,2.89-1,2.89-1,1.32-1.62,1.32-1.67,1.32-1.67,1.44-.79,6.66-.22,6.66-.22,3.69-.6,3.91.9,3.91.9,2.6.22,3.52,1.29,3.52,1.29.76-.61,1.83.42,1.83.42a3.4,3.4,0,0,1,2.63,2.53c2.77.83,1.49,2.61,1.49,2.61,1.61,1.49.07,2.21,0,2.57s-.07,1-1.52,1.25a3,3,0,0,1-1.57-.34c-1.15-.52-2.34-1.46-3-1.64-1-.26-.81-.7-.81-.7-.64-.15-.55.44-.86-.48l-.42-.08s.16,1.66-.55,2.35-1,.66-1.43.63-1.49,1-2.13,1.37a3.15,3.15,0,0,1-1.32.53c-.36,0-1.13,1.63-2,1,0,0-.62-.76-1.17-.22a2.59,2.59,0,0,1-2.7.4c-.84-.46-2.17-.64-2.44-1.38-.16-.47-1.41-.87-2.31-1.45l-.22.11a9,9,0,0,0-2.55-3.08,9.6,9.6,0,0,0-1.67-1l.1-.19Z" transform="translate(-13.5 -269.31)"/><path class="cls-4" d="M89.58,342.09a6.23,6.23,0,0,1,1-3.35A4,4,0,0,1,93,337.47l1.66.44,1.63.43,1-.12s2.49.37,2.8.4,2.58.43,2.58.43c.21.63-1.12,1.09-1.12,1.09l-2.42.4.75,1.23C100.61,343,99,344,99,344c.48,2.32-1,3-1,3-2.28,1.53-4.48.2-6.08-.72a9.23,9.23,0,0,0-1.08-.55c-1.61-.64-1.18-2.14-1.21-3.64" transform="translate(-13.5 -269.31)"/><path class="cls-3" d="M90.56,399.82h0A11.75,11.75,0,0,0,96,397.93a10.56,10.56,0,0,0,2.65-2.87h0l.16.1c5.21-.7,6.18-7,6.35-9l-.45,2.87s-1.17,4.36-1,4.19a31.12,31.12,0,0,1-1.76,6c-.42,1.11-2.15,5.18-2.5,5.73l-5,5.12-.45-.45c-1-3.08-.88-2.62-1-3.56-.22-1.57-2.39-6-2.39-6Z" transform="translate(-13.5 -269.31)"/><path class="cls-3" d="M80.69,341.48a4,4,0,0,1-.1-2.67l-.17-.34,3.08-1.54s4.6-1.6,7.12-2.72l.74.2s3,2.17,3.34,3.23l-.07.27L93,337.47a7.93,7.93,0,0,0-2.39,1.26,5.75,5.75,0,0,0-1,3.37c0,1.49-.41,3,1.21,3.63a9.23,9.23,0,0,1,1.08.55l-.07.16s-4.35-.17-4.8-.2a7.57,7.57,0,0,1-6.31-4.76" transform="translate(-13.5 -269.31)"/><path class="cls-4" d="M85,327.32A12.59,12.59,0,0,0,86.67,324a8.46,8.46,0,0,0-.44-6.21l.22-.11c.9.58,2.15,1,2.31,1.45.27.74,1.6.92,2.44,1.38a2.59,2.59,0,0,0,2.7-.4c.55-.54,1.17.22,1.17.22.84.62,1.6-1,2-1a3.2,3.2,0,0,0,1.32-.53c.64-.39,1.67-1.4,2.13-1.37s.72,0,1.43-.63.55-2.35.55-2.35l.55-.35a1.62,1.62,0,0,0,1,.91s-.39.44.58.7c.65.18,1.84,1.12,3,1.65l-.07.16a3.51,3.51,0,0,0-.58,1.06,53.42,53.42,0,0,0-2.12,6c-.34,1.67-1.5.38-1.5.38a5.49,5.49,0,0,1-.81.8,3.53,3.53,0,0,1-1.25.23s-.51.66-.74.73a1.39,1.39,0,0,0-.75.88c0,.3,0,.69-.74.8a7.68,7.68,0,0,1-2.65-.93l-2.94-1.6-.42-.22-7.47,1.94Z" transform="translate(-13.5 -269.31)"/><path class="cls-3" d="M59.23,385.41c-1-.77-.52-1.77-.66-4.55s4.66-3.84,5.9-4,6.25-1.38,6.25-1.38l4.86-2.08.06,0a2,2,0,0,0,.34.36c.51.41,1.09,1.13,1.6,1.56a3.06,3.06,0,0,0,2,.27,4.61,4.61,0,0,0,1.51-.76c.4-.2.36-.9.39-1.45a19.91,19.91,0,0,1,.37-2.21c.09-.34.48-1.36.55-1.55h0a4.49,4.49,0,0,1,1.48-.84c.24-.13.61-.5.88-.52a3.71,3.71,0,0,1,1.1.45,5.35,5.35,0,0,0,2.94-.13c.62-.21.76-.44.68-.67h0S95,369.33,97.42,371l.11.08h0l-.08.1a4.37,4.37,0,0,1,2.27,3.15c.11.47.4.62.74,1s0,.43.43.91c.69.78,1.43,1.38,1.87,2s.76,1.8.95,2h.09c.44,1.73.88,3.92.88,3.92l.47,2h0c-.18,2-1.15,8.31-6.36,9l-.16-.1h0A10.32,10.32,0,0,1,96,397.93a11.68,11.68,0,0,1-5.41,1.89,5.73,5.73,0,0,1-4.77-1.8l-.58-.1a20.41,20.41,0,0,0,1.84-4.77s3.64-.49,3.74-2.24,1.39-4.33-9.08-8.16A15.07,15.07,0,0,0,77.07,388,32.2,32.2,0,0,0,75,393.74l-.37-.1c-2.35-1.39-7.41-6.6-9.67-9h0l-.08.07a37.66,37.66,0,0,0-3.65,2.06l-.07-.12a12.22,12.22,0,0,1-1.88-1.25" transform="translate(-13.5 -269.31)"/><path class="cls-4" d="M74.13,401.12a25.91,25.91,0,0,1,.82-7.38A31.44,31.44,0,0,1,77.07,388a15.07,15.07,0,0,1,4.64-5.28c10.47,3.83,9.18,6.42,9.08,8.16s-3.74,2.24-3.74,2.24a19.43,19.43,0,0,1-1.85,4.76c-.34.71-.6,1.2-.6,1.2l-1.49,3A59.76,59.76,0,0,0,80.9,408c-.13,1,1.59,1.21,2.24,1.37A13.36,13.36,0,0,1,85.9,411a12.6,12.6,0,0,1,1.52,1.59,2.24,2.24,0,0,0,.58.66,10.46,10.46,0,0,1,1.45.94s2.19,2.71,2.41,2.95.42.65.25.87-.63.27-.63.27l-2.93-1.87-2.15-.83a11.09,11.09,0,0,1,2,2.79s.71,1.66,1,2.49-.14,1-.54,1.2-1-.53-1-.53l-1.22-2.07-2.35-3.12.48,1.43.5,1.25.61,2.09s.42,1.45.55,1.81-.16.56-.35.74-.93-.16-.93-.16l-2.36-4.93c0,.05,0,.53-.07,1.11s-1.46,1.23-1.74,1.29a1.72,1.72,0,0,0-1,.55c-.29.37-.55.17-.55.17-.56-.31-.28-1.14-.19-1.28s.92-.61,1.13-.83-.2-1.29-.33-1.6a11.42,11.42,0,0,0-1.73-1.37c-.18-.17-1.77-1.5-1.77-1.5-1.31-1.08-1.87-4-2.15-7.31h0c-.17-2.13-.23-4.45-.3-6.63" transform="translate(-13.5 -269.31)"/><path class="cls-3" d="M76.23,340.43c-.19-.77.1-.85.1-.85,1.79-1.59,2.64-5.4,3.2-7.06s1.65-1.91,2.76-2.46A9,9,0,0,0,85,327.32l.5.22L93,325.61l.42.23-.05.1a6.79,6.79,0,0,1-1.19,4.61h0l.21.12a15.59,15.59,0,0,1-.15,2.61,4.46,4.46,0,0,1-1.6.93h0c-2.51,1.12-7.1,2.71-7.1,2.71l-3.09,1.55-3.91,2Z" transform="translate(-13.5 -269.31)"/><path class="cls-4" d="M59.52,326.54c-2.44-3.09-.59-5.76,2.88-9.55,3.08-3.38,12.45-4.34,14.52-4.49v-.08A12.58,12.58,0,0,1,82,313.67a10.53,10.53,0,0,1,1.66,1,9.07,9.07,0,0,1,2.55,3.09,8.44,8.44,0,0,1,.44,6.2A12.07,12.07,0,0,1,85,327.32a9.07,9.07,0,0,1-2.71,2.74c-1.12.55-2.21.8-2.77,2.46s-1.41,5.47-3.2,7.06c0,0-.29.08-.1.85a5.28,5.28,0,0,0,.3.86c.68,1.58,2.89,5.88,2.85,9.12a29.28,29.28,0,0,0,1.32,8.87c.78,2.52,2.29,5.55,2.9,5.58a4.07,4.07,0,0,1,2.27.92,10.58,10.58,0,0,0,2.54,1.38c.28.11.93.41,1.06.75s-.06.45-.68.66a5.35,5.35,0,0,1-2.94.13,3.71,3.71,0,0,0-1.1-.45c-.26,0-.64.39-.88.52s-1.13.39-1.48.83h0c-.07.19-.46,1.21-.55,1.55a17.68,17.68,0,0,0-.37,2.22c0,.54,0,1.24-.39,1.44a4.61,4.61,0,0,1-1.51.76,3,3,0,0,1-2-.28c-.52-.41-1.09-1.15-1.6-1.55a2,2,0,0,1-.34-.36,3.76,3.76,0,0,1-.63-2.87,16.68,16.68,0,0,1,1.29-3.4c0-.38-1.85-5.28-1.85-5.28S71.59,358,71.12,357A19.83,19.83,0,0,1,68,350.4a30.1,30.1,0,0,1-.85-5.11,10.08,10.08,0,0,1-.31-3.34,15,15,0,0,1,.14-1.53,74.22,74.22,0,0,0,.32-8c0-.18,0-.55.11-1l-.35,0c-2.53.93-5.15-1.7-7.58-4.77" transform="translate(-13.5 -269.31)"/><path class="cls-3" d="M48.54,384.68a17.13,17.13,0,0,1,.55-3.27,69.13,69.13,0,0,0,1.39-7.11c0-1.78-1.44-9.43-1.44-14.59a13,13,0,0,1,3.15-8.43v-.15A83.71,83.71,0,0,0,68,350.42l.08,0A20.13,20.13,0,0,0,71.11,357c.48,1,3.34,4.83,3.34,4.83s1.87,4.9,1.84,5.28A17.63,17.63,0,0,0,75,370.51a3.78,3.78,0,0,0,.63,2.88l-.06,0-4.85,2.08s-5,1.25-6.26,1.38-6,1.18-5.9,4-.33,3.78.65,4.55a12.56,12.56,0,0,0,1.89,1.25l.07.12A10.2,10.2,0,0,0,59,388.5,11.18,11.18,0,0,0,56.45,393l-.25,0a28.7,28.7,0,0,0-3.87-2.29c-.25,0-1.14-.17-2.12-.3l0-.29h0c-1.54-2.12-1.53-4.68-1.71-5.4" transform="translate(-13.5 -269.31)"/><path class="cls-3" d="M40.93,349c-2.87-4.36-1-6.11-.78-6.32,1.15,1.09,2.73,2.19,4.55,1.94,3.11-.44,6.57-1.61,8.2-.44s4.38,4.13,7.6,2c2.3-1.52,4.46-3.05,5.48-3.79l.63-.46h.27a10,10,0,0,0,.31,3.33A30.06,30.06,0,0,0,68,350.4l-.08,0a84.2,84.2,0,0,1-15.76.72,48.86,48.86,0,0,1-6.29-.75,32.55,32.55,0,0,1-3.34-.81h0c-.56-.16-1.11-.35-1.64-.56" transform="translate(-13.5 -269.31)"/><path class="cls-3" d="M38.44,340.86c-.74-.66-1.32-3.63-.52-4.35S41.07,333,41.07,333c3.64-6.57,7.39-7.42,7.39-7.42l.24,0c-.45,2.58-.76,6.08-.8,6.71,0,.78,2.08,4,3.12,4.68a12.77,12.77,0,0,0,4.22,1.62c.92.06,5.29,1.86,6,2.06l4.53,1.51.16.21c-1,.74-3.18,2.27-5.49,3.79-3.21,2.12-6-.82-7.59-2s-5.09,0-8.2.44c-1.82.25-3.4-.85-4.54-1.95-.82-.77-1.42-1.54-1.72-1.82" transform="translate(-13.5 -269.31)"/><path class="cls-3" d="M45.87,402.31c-5.36.1-3.68-5.67-3.45-7.81s3.85-4.2,5-4.33a14.57,14.57,0,0,1,2.79.2c1,.13,1.87.28,2.12.3A28.7,28.7,0,0,1,56.2,393l.25,0a4.3,4.3,0,0,0-.08.6c-.09,1.53,1.27,2.84,1.86,3.3v.1c-1.51-.14-3.27-.1-3.69-.13-.72,0-4.66,2.2-5.34,3.09a2.09,2.09,0,0,1-.33.35,21.59,21.59,0,0,1-3,2" transform="translate(-13.5 -269.31)"/><path class="cls-4" d="M51.66,433.12c0-.19-2.25-4-2.4-5s1.54-5.06,2.36-6.86a12.76,12.76,0,0,0,.91-4.78,3,3,0,0,1,.93-1.8l.16-.2.25.23c4,3.42,7.48,7.34,12.18,9.57s15,6.36,16.16,6.74l1.22.47,0-.05,2.22.2c9.14.34,9.58-3.64,11.34-7.25a6.47,6.47,0,0,0,.5-1.31l.35.11a28.47,28.47,0,0,1,2.12,3.13c1.09,1.84.44,5.58.33,6.88s-.94,1.45-2.76,3.54-6,1.3-8,.76a77.23,77.23,0,0,0-9-1.78c-2.58-.25-7.75-3.39-9-4s-7.23-5.56-7.92-6.22a7.43,7.43,0,0,0-3-1.16c-.69-.12-5,2.95-5.41,3.2A3,3,0,0,0,54,428.8c-.18.48,0,.77.24,1.24s.7.47,1.08.61l1.51.51c.41.14-.75,1.54-1,1.65s-.18.52-.2.82-.65.48-.88.54a10,10,0,0,1-1.12,0,6.07,6.07,0,0,1-1.26-.14,2.71,2.71,0,0,1-.76-.87" transform="translate(-13.5 -269.31)"/><path class="cls-3" d="M47.9,332.32c0-.63.35-4.12.8-6.71.1-.58.21-1.11.32-1.56.6-2.42,2.66-3.23,4.1-4.07s3-4,4.61-5,5.82-1.81,9.11-2.54,9.57-.05,9.57-.05h.52v.08c-2.07.15-11.44,1.11-14.52,4.48-3.47,3.81-5.32,6.48-2.88,9.56s5,5.7,7.58,4.77l.35,0c-.06.49-.09.87-.11,1a74.22,74.22,0,0,1-.32,8c-.07.55-.12,1.06-.14,1.53h-.27l-.63.46-.15-.21-4.54-1.5c-.76-.21-5.13-2-6-2.06A12.85,12.85,0,0,1,51,337c-1-.69-3.17-3.89-3.12-4.67" transform="translate(-13.5 -269.31)"/><path class="cls-3" d="M51.34,405.3a16.47,16.47,0,0,0,9.84,4.21c5,.29,10.3,1,13.26-1.76.27,3.35.83,6.23,2.14,7.31l1.77,1.5a10.47,10.47,0,0,1,1.73,1.38c.14.3.54,1.37.33,1.59s-1,.67-1.13.83-.37,1,.19,1.28c0,0,.26.2.55-.17a1.72,1.72,0,0,1,1-.55c.27-.06,1.7-.67,1.74-1.29s.06-1.06.06-1.11l2.36,4.93s.72.35.93.16.48-.39.35-.74-.55-1.81-.55-1.81L85.3,419l-.5-1.25-.48-1.43,2.35,3.12,1.22,2.07s.62.7,1,.53.87-.37.54-1.2-1-2.49-1-2.49a11.09,11.09,0,0,0-2-2.79l2.15.83,2.93,1.87a1.13,1.13,0,0,0,.64-.27c.16-.23,0-.63-.26-.87s-2.41-2.95-2.41-2.95A10.46,10.46,0,0,0,88,413.2a2.39,2.39,0,0,1-.58-.66A12.6,12.6,0,0,0,85.9,411a13.36,13.36,0,0,0-2.76-1.55c-.65-.16-2.37-.37-2.24-1.37a62.44,62.44,0,0,1,2.21-5.88l1.49-3s.26-.49.61-1.2l.58.11a5.77,5.77,0,0,0,4.77,1.8l0,.24s2.17,4.44,2.39,6c.13.95,1.34,4.85,2.33,7.94.63,2,1.18,3.62,1.28,3.91a6.65,6.65,0,0,1,1.06,4.69c0,.16-.07.33-.12.5a7.49,7.49,0,0,1-.51,1.31c-1.75,3.61-2.2,7.59-11.34,7.25l-2.22-.2,0,.05c-.55-.23-1-.39-1.22-.46-1.11-.39-11.46-4.49-16.16-6.75s-8.17-6.15-12.18-9.58l-.25-.22c-3.7-3.45-2.39-9.09-2.39-9.09l.11-.1Z" transform="translate(-13.5 -269.31)"/><path class="cls-3" d="M38.82,387.58c-1.92-.12-1.28-1-1.28-1,.26-.37.63-1.44.85-1.83,3.93-5.46,3-15,2.92-22.17a16.72,16.72,0,0,1,4.57-12l0-.18a50.31,50.31,0,0,0,6.28.75v.14A12.93,12.93,0,0,0,49,359.71c0,5.16,1.47,12.81,1.44,14.58a68.7,68.7,0,0,1-1.39,7.12l-.65,3,.81,4.33s.69,1.69-2.15,1.39a4.46,4.46,0,0,1-4.78-1.07c-.94-1.06-1.58-1.39-3.5-1.5" transform="translate(-13.5 -269.31)"/><path class="cls-3" d="M51,404.88c-1.15-1.4-1.48-4.51-1.48-4.51l-.62-.07a2.74,2.74,0,0,0,.34-.35c.67-.89,4.61-3.13,5.33-3.09.42,0,2.18,0,3.69.13v-.1c-.59-.46-1.95-1.77-1.86-3.3a4.3,4.3,0,0,1,.08-.6,11.16,11.16,0,0,1,2.59-4.5,10.52,10.52,0,0,1,2.14-1.71,37.66,37.66,0,0,1,3.65-2.06l.08-.07c2.26,2.38,7.32,7.6,9.67,9l.37.1a25.91,25.91,0,0,0-.82,7.38c.06,2.18.13,4.5.31,6.63h0c-3,2.78-8.25,2.06-13.26,1.76a16.47,16.47,0,0,1-9.84-4.21,4.51,4.51,0,0,1-.38-.42" transform="translate(-13.5 -269.31)"/><path class="cls-3" d="M33,386.12s-1.12-.11-.85-.36a34.32,34.32,0,0,0,2-3c.12-.2.68-1.75,1.18-2.84a19,19,0,0,0,1.11-3.4,21.37,21.37,0,0,0,1.21-3.86l.8-11.44a20.75,20.75,0,0,1,4.07-11.45l.06-.18c1.07.32,2.19.59,3.33.81l0,.18a16.78,16.78,0,0,0-4.58,12c.08,7.19,1.93,13.72-1,19.06l-1.11,2.24-1.49,3.72c-.14.07-1.23-.81-2.11-.53s-2.32-.27-2.5-.93" transform="translate(-13.5 -269.31)"/><path class="cls-3" d="M28.26,382.75c-2.12-1,1.39-4.23,1.39-4.23l2.82-4a19.65,19.65,0,0,0,2.79-5.78c.83-1,1.18-8.78,1.18-8.78,1.07-8.68,4.49-11,4.49-11,.53.21,1.08.4,1.64.56h0l0,.18a20.75,20.75,0,0,0-4.07,11.45l-.8,11.44a21.55,21.55,0,0,1-1.22,3.87A28.51,28.51,0,0,1,35.19,380l-2.89,5.64s-1.32-1-2.18-1.54c-1.11.27-1.86-1.33-1.86-1.33" transform="translate(-13.5 -269.31)"/><path class="cls-2" d="M124.33,444a.45.45,0,0,1-.16,0l-15.56-5.25a.51.51,0,0,1-.34-.47v-4a.5.5,0,0,1,.45-.5h.06L124.52,430l.89-6.39a1.28,1.28,0,0,1-.49-.31,2.42,2.42,0,0,1-.5-1.66l-.39-6.37a3.65,3.65,0,0,1-.77-.94c0-.06-.07-.13-.11-.2-1.77-.92-3.16-.2-4.91.71a18,18,0,0,1-2.65,1.21,27.32,27.32,0,0,1-6.69,1.18.84.84,0,0,1-.26-.07c-3-.6-10.5-8.5-11.36-9.41a.5.5,0,1,1,.73-.69c1.15,1.22,2.56,2.64,4,4-.19-2.92-.7-10.94-.41-12.39a.5.5,0,0,1,1,.19c-.26,1.32.27,9.9.49,13.09v.1c2.19,2,4.31,3.68,5.5,4.07.67-1.75,3.17-8.55,3.74-13.88,0,0,.34-3.27.64-7.67a.5.5,0,0,1,.5-.47h0a.5.5,0,0,1,.46.54c-.3,4.42-.63,7.67-.64,7.7-.57,5.26-2.87,11.68-3.68,13.84a25.59,25.59,0,0,0,5.63-1.08,16.81,16.81,0,0,0,2.5-1.14c1.62-.84,3.16-1.66,5-1.06a11,11,0,0,1,0-2.06c0-.25,0-.48,0-.7a8.52,8.52,0,0,1,1.39-3.69c.34-.62.7-1.28,1-2a31.25,31.25,0,0,0,1.1-3.1l-.2.28a1.27,1.27,0,0,1-1.23.68c-.74-.12-1.1-1.06-1.19-1.32-.33-.79.6-2.93.75-3.18a1.65,1.65,0,0,0,.17-.49,3.65,3.65,0,0,1-2.57.34,7.63,7.63,0,0,1-2.45-1.48l-1.52-1.32c-.37-.31-.79-.74-.71-1.24s.51-.64.8-.76l.07,0a.82.82,0,0,1,.13-.75c.33-.41,1-.34,1.45-.24.15,0,.62.12,1.78,1.74a12.25,12.25,0,0,0,1.06-.66,6.69,6.69,0,0,0,.1-1,28.78,28.78,0,0,1,.86-3.95,5.28,5.28,0,0,1,1-1.56.49.49,0,0,1-.14-.18,8.25,8.25,0,0,1-.33-6.57,8.45,8.45,0,0,1,1.32-2.18c0-.46-.41-5.28-.29-7.3.06-.94.85-4.88,2.36-11.7a.47.47,0,0,1,.6-.38.49.49,0,0,1,.38.59c-1.45,6.59-2.28,10.69-2.33,11.55-.09,1.48.11,4.68.22,6.26a12.39,12.39,0,0,1,3.34-2.17.51.51,0,0,1,.38.94s-3.74,1.54-5.05,4.77a7.09,7.09,0,0,0,.2,5.48.1.1,0,0,1,0-.05h0a.16.16,0,0,1,.08-.06l1.77-1.61a3.45,3.45,0,0,1,3.92-.9c1.34-3.64,2.77-4.8,3.33-5.25l.11-.1a9,9,0,0,0,1.06-2.33l-.4.05a.53.53,0,0,1-.54-.36s-1.13-3.81-1.61-6c-.56-2.5,2.22-6,2.81-6.43a4.49,4.49,0,0,0,.86-1.65l0-.09a8.49,8.49,0,0,1-1.29-3.35,16.44,16.44,0,0,1-.21-2.93.4.4,0,0,1-.2-.09,2,2,0,0,1-.8-2,3.1,3.1,0,0,0-.1-1.12h0l-5.74-2.75a2,2,0,0,1-.89,1.42h0a6.87,6.87,0,0,1-1.86,1.29,4.18,4.18,0,0,1-2,.25.47.47,0,0,1-.37-.27s-.28-.51-.48-.86a.46.46,0,0,0-.14-.14,4.14,4.14,0,0,1-1.28-3.25A28.57,28.57,0,0,1,114,346a11,11,0,0,1,.43,1.3,8.75,8.75,0,0,1,.2,3.19c-.13.76-.81,4.38-2.22,5-1.2.55-5.34.1-7-.59a1.61,1.61,0,0,1-1-.78c-.23-.6-.53-.82-1.73-1.66l-.75-.52c-1.38,1-7.63,6-6.2,17.58.38.17.76.36,1.1.54-.15-1.15-.19-3,1-3.62l.14-.12c.24-.22.68-.63,1-.95l.18-.2c.78-.86,1.53-1.64,2.22-1.7a2.88,2.88,0,0,0,1.38-1l.11-.12c.55-.64,2-2.31,4.17-2,.74.12,1.88.22,3,.32,2.71.25,4,.39,4.38.71a30.81,30.81,0,0,0,3.55,2.3,3.54,3.54,0,0,1,.45,0l-.2-9.07a.5.5,0,0,1,.49-.52h0a.52.52,0,0,1,.51.5l.2,9.25a2.94,2.94,0,0,1,2.08,1.75,2.09,2.09,0,0,1,.42,2.5,6,6,0,0,1,2.34,2.34,4.32,4.32,0,0,1,0,3.1,2.53,2.53,0,0,1-1.54,1.27c-.38.05-1.69.21-2.44.25a4.71,4.71,0,0,1-1.62,2.56c0,.67-.06,2.52-.11,3.35a1.14,1.14,0,0,1-.46.88,2.23,2.23,0,0,1-1.55.27c-.28.48-.75,1.14-1.3,1.22a1.77,1.77,0,0,0-.66.33,2.41,2.41,0,0,1-.81.39.93.93,0,0,0-.25.2,2.46,2.46,0,0,1-1,.64,6.61,6.61,0,0,1-5.66-1.67,13.09,13.09,0,0,1-1.54-2.48.5.5,0,0,1,.23-.67.52.52,0,0,1,.68.24,12.31,12.31,0,0,0,1.4,2.25,5.76,5.76,0,0,0,4.6,1.36,1.47,1.47,0,0,0,.63-.41,1.52,1.52,0,0,1,.75-.44l.16-.07-.61-.5a.5.5,0,1,1,.64-.78l.68.56a.48.48,0,0,1,.15.2,2.21,2.21,0,0,1,.5-.15,1.83,1.83,0,0,0,.43-.5c-.58-.25-1.09-.61-1.06-1.11a.51.51,0,0,1,.51-.48h0a.51.51,0,0,1,.46.41,3.42,3.42,0,0,0,.89.41h0a1.9,1.9,0,0,0,1.12,0,.14.14,0,0,0,.05-.13c.06-1,.11-3.56.11-3.56a.52.52,0,0,1,.24-.42,3.61,3.61,0,0,0,1.46-2.35,1.09,1.09,0,0,0-.28-.6,1.26,1.26,0,0,0-1.13.15,22.2,22.2,0,0,1-3,1.75l-.46.13a3.14,3.14,0,0,0-.87.29c-.07.2-.41,1-2.57,2.19-.08,0-.08,0-3.83.89l-2.82.64c.45,1.73.88,3.72.88,3.72a11.06,11.06,0,0,1,.48,2.19c-.1,1.47-.89,8.89-6.8,9.67h0a12.58,12.58,0,0,1-7.62,4.56A33,33,0,0,1,93.46,406c.1.71,1,3.65,2.31,7.85.63,2,1.17,3.61,1.28,3.9a2.42,2.42,0,0,0,.2.39,6.43,6.43,0,0,1,.87,4.57s0,0,0,.08a.49.49,0,0,1,.14.11,32.31,32.31,0,0,1,2.16,3.19c1,1.74.66,4.86.46,6.54,0,.26-.06.48-.07.66a3.21,3.21,0,0,1-1.36,2.25c-.4.39-.9.86-1.52,1.58-2.07,2.37-6.62,1.42-8.47.91a76.09,76.09,0,0,0-9-1.76c-2-.21-5.45-2-7.7-3.24-.66-.35-1.19-.64-1.49-.77-1.41-.65-7.49-5.79-8.06-6.33a6.46,6.46,0,0,0-2.81-1s-.77.16-4.91,3.05l-.11.07a2.48,2.48,0,0,0-.93,1c-.07.19,0,.28.12.63l.11.24c0,.12.14.16.44.23a2.47,2.47,0,0,1,.36.11l1.48.5a.63.63,0,0,1,.44.59,3.43,3.43,0,0,1-1.26,1.92,2.44,2.44,0,0,0,0,.27v.21c0,.47-.47.81-1.28,1a2.91,2.91,0,0,1-.85,0l-.31,0a7.55,7.55,0,0,1-1.5-.17,2.57,2.57,0,0,1-1.08-1.28s-.23-.4-.5-.89a21.35,21.35,0,0,1-1.9-4.08c-.22-1.38,2.38-7.08,2.4-7.14a11.18,11.18,0,0,0,.84-4.26l0-.36a3.45,3.45,0,0,1,.9-1.94c-3.24-3.41-2.36-8.39-2.2-9.14l-.16-.19A10.2,10.2,0,0,1,49,400.84a22,22,0,0,1-2.93,1.93.82.82,0,0,1-.38.06,4.08,4.08,0,0,1-3.25-1.24c-1.41-1.62-1-4.38-.69-6.2.06-.35.11-.67.13-.93.16-1.5,1.63-2.86,3.06-3.74a13.16,13.16,0,0,1-1.44-.21l-.12,0A5,5,0,0,1,42,389.23c-.65-.72-1.4-.75-2.76-.81l-.9,0a1.45,1.45,0,0,1-.89-.32,26,26,0,0,1-4.53-1.26c-.65-.28-.94-.52-1-.84a.67.67,0,0,1-.08-.29,1.23,1.23,0,0,1-.29-.09l-3.33-2.3a2.41,2.41,0,0,1-.92-2.43,2.48,2.48,0,0,1,.56-1.08c.06-.07,4.58-4.7,6.61-9.06,1.06-3.26,1.5-11.73,1.5-11.81.85-7,3.21-9.34,4.28-10.08-2.11-3.45-1.36-5.34-.76-6.13-.35-.36-.65-.69-.89-1l-.47-.51A5.35,5.35,0,0,1,37,337.83a2.23,2.23,0,0,1,.56-1.72c.78-.69,3.07-3.44,3.09-3.46,3.44-6.24,7.06-7.44,7.61-7.59.08-.43.16-.82.25-1.16.57-2.32,2.33-3.28,3.74-4l.59-.34a9.54,9.54,0,0,0,2.07-2.26,11.33,11.33,0,0,1,2.54-2.71c1.45-.89,4.7-1.6,7.84-2.29l1.42-.31c3.29-.73,9.31-.1,9.73-.06h.49a13.18,13.18,0,0,1,4.58,1,3.27,3.27,0,0,1,1.64-2.42,2,2,0,0,1,.6-.18c.19-1.66,3.55-2.45,5.08-2.72a2.19,2.19,0,0,1,.81-1.27c2-1.57,6.89-.82,7.62-.7,3.4-.51,6.75,1.62,7.56,2.18,2.73-.38,4.29,2.28,4.69,3.07,1.14.42,2.63,1.71,1.65,5.6l-.53.08.5.08c-.11.64-.43,1.34-1.93,1.57a2.8,2.8,0,0,1-1.43-.2,3.59,3.59,0,0,0-.39.78l-.35.89a38.38,38.38,0,0,0-1.76,5c-.14.69-.44,1.1-.89,1.22a1.24,1.24,0,0,1-1.05-.24,3.38,3.38,0,0,1-.59.52,2.93,2.93,0,0,1-1.27.3,2.1,2.1,0,0,1-.85.73,1.1,1.1,0,0,0-.39.44,1.21,1.21,0,0,1-1.16,1.25,7.29,7.29,0,0,1-3-1l-2.23-1.21a7,7,0,0,1-1,3.81.57.57,0,0,1,0,.18,14.92,14.92,0,0,1-.17,2.76c-.06.2-.17.39-.82.74.82.61,3,2.3,3.3,3.37h0l1.11.3.91-.11h.13c1,.14,2.56.38,2.76.39s2.26.38,2.64.45a.51.51,0,0,1,.39.33,1,1,0,0,1-.05.72,2.55,2.55,0,0,1-1.39,1l-1.77.3.37.6a1.69,1.69,0,0,1,.22,1.31,2.69,2.69,0,0,1-1,1.38,2.93,2.93,0,0,1-1.34,3.25c-2.3,1.56-4.61.38-6.21-.53a.42.42,0,0,1-.18,0c-.18,0-4.37-.17-4.83-.21a8,8,0,0,1-6.74-5.08,3.86,3.86,0,0,1-.24-2.41l-3.1,1.56c0,.09.07.18.11.29l.37.82c.9,2,2.56,5.61,2.52,8.51a29.29,29.29,0,0,0,1.3,8.72c.79,2.55,2.11,5,2.55,5.24a4.38,4.38,0,0,1,2.52,1.07,9.68,9.68,0,0,0,2.35,1.25,2.93,2.93,0,0,1,1.18.76,46.17,46.17,0,0,1,4.92,1.61c-1.17-11.22,4.69-16.47,6.51-17.81a1.74,1.74,0,0,1-.27-.72c-.18-1.35,1.14-3,2.11-4.18a7.91,7.91,0,0,0,.78-1.07,1.31,1.31,0,0,0,.12-.53c0-.25.07-.68.19-1.55a66.88,66.88,0,0,1,2.17-7.61,6.74,6.74,0,0,1,1.94-2.16,3.83,3.83,0,0,1,4-2.15,4,4,0,0,1,2.17-.22c1-.41,2.69-1,3.29-.85a4.24,4.24,0,0,1,2.53,1.3c.44.23,1.57.88,1.78,1.66a1.47,1.47,0,0,0,.38.24,1.85,1.85,0,0,1,1.23,1.78,2.49,2.49,0,0,1,.86,1.21,2.74,2.74,0,0,1,1,1.11c.61-1.4,1.4-3.19,1.54-3.4,0,0,3-4.65-.06-12.25-.17-.06-.82.35-1.61,1.3l-.1.1a2.78,2.78,0,0,1-1,.82,11.06,11.06,0,0,1-2.44.73c-.27.72-1,1-1.64,1.21a6.51,6.51,0,0,0-1.54.71,4.45,4.45,0,0,1-4.64-.09c-1-.91-3-2.87-3.41-3.32l0,.05-.08.1c-.34.41-.61.42-1.62.44a2.49,2.49,0,0,1-2.38-1.33.75.75,0,0,1,0-.49c.14-.37.75-.79,1.81-1.22a10.24,10.24,0,0,1,3.89-1.28l.38,0c0-.88.19-3.07,1-3.8a7.75,7.75,0,0,1,2.63-1.6,5.85,5.85,0,0,1,1.14-6.36c2.61-3.07,3.57-3.64,4.86-3.81l2.89-.37c.64-.42,3.86-2.35,7.14-.52a26.84,26.84,0,0,1,2.06-2.08,20.47,20.47,0,0,1,4.18-1.34c.24,0,4.27-.42,6.67,1.87.66.06,2.75.39,3.47,2l.55,1.17c1,2.08,1.59,3.4,1.45,4.1a7.9,7.9,0,0,1-.31,1,2.8,2.8,0,0,0-.21.75,15.21,15.21,0,0,1-.37,3.51,24.06,24.06,0,0,1,11.29,9.74c.17.31,1.65,2.94,1.67,4.43v.67a12.24,12.24,0,0,1,3.16,3.27,28.51,28.51,0,0,1,8.84.08h.05a7.29,7.29,0,0,1,3.7.38,4.9,4.9,0,0,0,1.54.12,11.44,11.44,0,0,1,7.7,2.2l3.18-1a7.65,7.65,0,0,1,6.5,1.66,8.56,8.56,0,0,1,2.94,6.11,8.66,8.66,0,0,1-1.94,4.63s0,0,0,0c1.87,4.67,3.18,11.08,4.38,21.43,1.94,16.73-1.87,31.71-3.7,38.91-.16.63-.3,1.2-.43,1.7-1.46,6,1.07,14.07,3.25,14.62a.51.51,0,0,1,.38.53.5.5,0,0,1-.45.46c-.42.05-10.42,1.13-14.83,1l-1.82-.06c-.61,0-1.19,0-2.35-.08-10.35-.45-13.61-.74-14.72-.94,0,.1,0,.19.07.24.6.87,2.32,3.39,2.34,4.37,0,1.35-2,2.86-2.06,2.92a7.29,7.29,0,0,1-1.24.67,8,8,0,0,0-.93.47,3.69,3.69,0,0,1-2.19.26l-.36,0a10.86,10.86,0,0,1-2.29-.58,10.07,10.07,0,0,1-2.74.2c-1.44-.19-1.59-1.71-1.72-3.18v-.13a4.55,4.55,0,0,1,.18-1.75,11.56,11.56,0,0,1,.82-2.06l.12-.25a12.13,12.13,0,0,0,.56-1.73h-.15c-2.32-.39-3.05-1.07-4.91-6.85l-1.07-3.94a16.35,16.35,0,0,1,.31-13c.07-.18.14-.33.19-.46.55-1.44,3.65-7.45,3.78-7.7l1.93-4.15.08-.36c-.74,0-2.26.05-4.34.23v0c-.63,8.06-2.51,10.93-2.59,11s-3.88,5.94-4.41,6.69c-.16.22-.41.91-.31,3.08a8.36,8.36,0,0,1-.38,2,4.13,4.13,0,0,0,1,2.7,6.14,6.14,0,0,0,.75.79,4.54,4.54,0,0,1,1.14,1.43c.49,1.13-.69,2.58-2.06,3.27s-4.5.64-6.9.34a2.56,2.56,0,0,1-1.79-1,3.4,3.4,0,0,1-.53-2.36c0-.08,1-3.07,1.16-3.55a10.59,10.59,0,0,0,0-2.79c-.14-1.18,1-3.61,1.86-4.84.51-.7.7-2.3.56-4.75v-.15c0-.55,0-5.63.05-8.51v0a100.51,100.51,0,0,1-7.35,11.08c-.79,1.07-1.53,2.08-1.62,2.3-.35,1.12-.5,1.95.46,6A7,7,0,0,1,132.3,416a.46.46,0,0,1-.07.07L134,427.79l2.33-.54a.38.38,0,0,1,.21,0l16.34,3.36a.5.5,0,0,1,.2.08h0l0,.06h0a.53.53,0,0,1,.14.35v4a.5.5,0,0,1-.37.48L124.47,444Zm.29-4.36v3.25l27.66-8.14v-3Zm-15.34-1.75,14.33,4.83v-3.1l-14.33-4.71Zm1.36-3.59,13.49,4.43,26.54-7.54-14.22-2.93-2.3.54.64,4.3a.5.5,0,0,1-.37.56.51.51,0,0,1-.6-.31l-1.51-4.12-5.92,1.39-1.92,5.11a.52.52,0,0,1-.61.32.51.51,0,0,1-.35-.58l.82-4.38ZM60.47,423.92h.15a7.5,7.5,0,0,1,3.31,1.29c.75.7,6.63,5.61,7.79,6.14.31.14.86.43,1.54.8,2,1.1,5.48,2.94,7.33,3.13a74.26,74.26,0,0,1,9.13,1.79c1.31.37,5.7,1.39,7.44-.61a21.29,21.29,0,0,1,1.59-1.63c.72-.7,1-1,1-1.62,0-.19,0-.42.08-.69.18-1.56.52-4.46-.33-5.9A30.45,30.45,0,0,0,97.77,424c-.1.24-.2.48-.32.71-.2.43-.4.87-.59,1.31-1.34,3.07-2.72,6.24-10.16,6.24h-.41a20,20,0,0,1,3.87,2,.5.5,0,1,1-.7.72,39.6,39.6,0,0,0-6.24-3c-.53-.22-1-.39-1.18-.46-1.16-.4-11.54-4.52-16.23-6.77-3.55-1.68-6.45-4.35-9.26-6.93-1-.88-1.92-1.76-2.92-2.62a2.34,2.34,0,0,0-.63,1.32l0,.34a12.67,12.67,0,0,1-.93,4.63c-1.14,2.46-2.43,5.93-2.33,6.57a28.12,28.12,0,0,0,1.8,3.75,5.32,5.32,0,0,1,.61,1.25,5.9,5.9,0,0,0,.5.49h0l1,.08a3.46,3.46,0,0,1,.52,0,3.58,3.58,0,0,0,.53,0,2.9,2.9,0,0,0,.51-.17v-.07c0-.33,0-.9.51-1.1a4.82,4.82,0,0,0,.65-.82l-1.15-.4-.25-.07a1.46,1.46,0,0,1-1.13-.81l-.09-.21a1.64,1.64,0,0,1-.15-1.42,3.55,3.55,0,0,1,1.3-1.44l.1-.07C59.11,424.24,60.09,423.92,60.47,423.92Zm-4.41,9.38h0Zm105.44-2.05a.51.51,0,0,1,.17,0,10.88,10.88,0,0,0,2.14.58l.37,0a3.28,3.28,0,0,0,1.58-.11,8.44,8.44,0,0,1,1.05-.54,7.72,7.72,0,0,0,1.06-.55c.7-.52,1.67-1.54,1.65-2.1a15.33,15.33,0,0,0-2.2-3.88.39.39,0,0,1-.08-.14s-.11-.41-.25-1c-.43-1.89-.78-4.47,0-6,.18-.35.58-1,1.18-1.95,3-4.76,10.79-17.19,10.61-26.58a6.19,6.19,0,0,0-.84.93c-1.71,2.4-8.29,7.93-13.65,12.25a.41.41,0,0,1,0,.19c0,.39-1,9.54-2.16,12.37-1,2.43-2,4.82-1.94,5.87a18.56,18.56,0,0,1-1.18,4.93l-.12.26a10.31,10.31,0,0,0-.76,1.88,3.93,3.93,0,0,0-.15,1.39v.14c.14,1.52.26,2.2.85,2.27a9.73,9.73,0,0,0,2.54-.21ZM83.43,431h0l2.23.21c7.65.28,8.85-2.46,10.23-5.62.2-.45.39-.9.61-1.35A7.65,7.65,0,0,0,97,423c0-.15.08-.31.11-.46a5.4,5.4,0,0,0-.77-3.89,4.46,4.46,0,0,1-.27-.54c-.1-.29-.65-1.94-1.29-3.93-.81-2.54-2.2-7-2.35-8a33.81,33.81,0,0,0-2.32-5.81,6.32,6.32,0,0,1-4.66-1.88c-.26.54-.45.88-.45.88l-1.49,3a55.78,55.78,0,0,0-2.16,5.73c0,.42,1.13.66,1.57.75l.29.07a12.83,12.83,0,0,1,3,1.67c1.41,1.33,1.58,1.6,1.65,1.78a1.64,1.64,0,0,0,.38.41,10.77,10.77,0,0,1,1.48,1c1,1.17,2.33,2.85,2.48,3a1.25,1.25,0,0,1,.29,1.51,1.57,1.57,0,0,1-1,.47.64.64,0,0,1-.33-.07l-3.2-2c.47.71.8,1.36.83,1.41l1.07,2.53a1.28,1.28,0,0,1-.82,1.85c-.67.33-1.38-.43-1.58-.66l-1.62-2.6.5,1.71s.41,1.43.54,1.78a1.13,1.13,0,0,1-.45,1.26,1.4,1.4,0,0,1-1.52-.06.51.51,0,0,1-.23-.23l-1.67-3.47a4.14,4.14,0,0,1-1.94,1.21,1.27,1.27,0,0,0-.72.38.88.88,0,0,1-1.25.25,1,1,0,0,1-.48-.66,1.9,1.9,0,0,1,.16-1.27,2.25,2.25,0,0,1,.71-.58,4.21,4.21,0,0,0,.41-.28,4.87,4.87,0,0,0-.34-1.11,11.22,11.22,0,0,0-1.13-.86L78,417c-.17-.16-1.75-1.48-1.75-1.48-1.16-1-1.86-3.05-2.24-6.72-2.83,1.95-7.1,1.67-11.23,1.38L61.12,410a17.05,17.05,0,0,1-9.54-3.78c-.2,1.56-.35,5.4,2.35,7.92l.21.19c1.07.91,2.08,1.84,3.09,2.76,2.88,2.64,5.6,5.14,9,6.76,4.66,2.24,15,6.33,16.12,6.73.2.06.56.2,1,.38Zm43.05-7.75v0l-.91,6.49h.07l3.62-9.18a.5.5,0,0,1,.47-.32h0a.5.5,0,0,1,.47.33L133,428H133l-1.84-12.27-.13-1.34a3.06,3.06,0,0,0-1.8,1.24,22.51,22.51,0,0,0-2,5.54A8.26,8.26,0,0,1,126.48,423.24Zm3.23-1.08-2.88,7.31,5.13-1.2Zm50.15,1.59,3,.13c1.15.05,1.73.07,2.34.08L187,424c.73,0,1.6,0,2.57,0-2.82-1.51-7.51-5.58-7.78-15.93a.51.51,0,0,1,.49-.52h0a.51.51,0,0,1,.5.49c.36,14,9,15.79,9,15.8l.13,0c3.1-.19,6.47-.51,8.32-.69-2.44-2.54-3.91-9.87-2.65-15,.12-.49.26-1.07.42-1.7,1.82-7.14,5.6-22,3.68-38.55-1.14-9.87-2.38-16.11-4.11-20.65a20.29,20.29,0,0,1-1.8,1.94l-4.33,3.54c-1.06,1.76-4,3.53-6,4.71-.54.32-1,.6-1.29.8a8.48,8.48,0,0,1-3,1.34h0l-3.77,14.81a.5.5,0,1,1-1-.25l3.67-14.4a9.06,9.06,0,0,1-2.37-.11c-14.68,17.56-18.27,39.42-19,45.93a6.11,6.11,0,0,1,.82-1c.82-.64,2.13-1.68,3.71-2.95,7.59-6.11,12.49-10.49,13.81-12.33a6.58,6.58,0,0,1,1.7-1.67l.05,0a11.56,11.56,0,0,1,7.17-1.55.51.51,0,0,1,.44.56.54.54,0,0,1-.57.44,10.88,10.88,0,0,0-6.16,1.18c.6,9.79-7.63,22.9-10.74,27.85-.56.9-1,1.55-1.13,1.86-.46.92-.46,2.67,0,4.86a.5.5,0,0,1,.23.09c.19.07,1.57.29,8.93.68a28.32,28.32,0,0,1-5.61-4.79.51.51,0,0,1,0-.71.5.5,0,0,1,.71,0c0,.05,4.28,4.79,7.59,5.55Zm-94.1-.48Zm-.22-.17a2,2,0,0,0,.31.09.72.72,0,0,0,.13-.14c-.14-.34-.57-1.82-.57-1.82l-.61-2.08-.48-1.22-.49-1.45v0h0a.55.55,0,0,1,0-.22.53.53,0,0,1,.93-.18l2.31,3.07,1.26,2.13a1.5,1.5,0,0,0,.44.3c.33-.14.36-.15.21-.54l-1-2.48A9.92,9.92,0,0,0,86.07,416a.51.51,0,0,1-.13-.64.48.48,0,0,1,.62-.23l2.16.83,2.85,1.81.07,0a.85.85,0,0,0-.17-.25c-.22-.25-2.2-2.69-2.43-3a12.08,12.08,0,0,0-1.25-.8l-.12-.07a2.31,2.31,0,0,1-.73-.89,17.65,17.65,0,0,0-1.33-1.32,12.94,12.94,0,0,0-2.6-1.5l-.26-.05c-.83-.17-2.54-.53-2.36-1.87a54.8,54.8,0,0,1,2.24-6l1.51-3.07.6-1.19a18.71,18.71,0,0,0,1.8-4.58.49.49,0,0,1,.43-.46c.84-.11,3.24-.69,3.31-1.78a4.23,4.23,0,0,1,0-.48c.17-1.5.43-3.77-8.55-7.09a14.64,14.64,0,0,0-4.26,4.93,31.9,31.9,0,0,0-2.1,5.63,25.66,25.66,0,0,0-.8,7.25l0,.86c.06,1.87.13,3.79.27,5.59a.45.45,0,0,1,0,.28c.32,3.79,1,6,2,6.84l1.78,1.51c0,.05.2.15.37.27.94.66,1.35,1,1.48,1.29.71,1.64.35,2,.24,2.14a4.26,4.26,0,0,1-.68.5,3.85,3.85,0,0,0-.43.29,1.09,1.09,0,0,0,0,.46,2.34,2.34,0,0,1,1.26-.7c.33-.08,1.27-.58,1.34-.83l0-.69c0-.19,0-.34,0-.41a.5.5,0,0,1,.5-.48.49.49,0,0,1,.47.32Zm38.52-9.38a.75.75,0,0,1,.07.12,2.57,2.57,0,0,0,.69.78.49.49,0,0,1,.2.37l.4,6.66a1.51,1.51,0,0,0,.23,1l0,0a7.34,7.34,0,0,0,.62-1.65,23.12,23.12,0,0,1,2.1-5.86,4.31,4.31,0,0,1,3.06-1.8.47.47,0,0,1,.54.46l.07.68a5.94,5.94,0,0,0,.52-4.21c-1-4.12-.88-5.17-.44-6.57a16.45,16.45,0,0,1,1.77-2.6,99,99,0,0,0,7.28-11c.38-.68.73-1.36,1.06-2,1.59-3.31,2.3-6,2.11-8.07a.47.47,0,0,1,0-.26l2.9-6.19c-.69.24-1.19.37-1.22.38l-9.43,1.13h0a10.58,10.58,0,0,1-1.5,3.2l-.15.13c-.52.42-1.91,1.55-3.21,5.38a43.22,43.22,0,0,0-1.77,8.51c0,.08-.87,3.12-1.81,6.24-1,3.36-1.72,5.5-2.11,6.35s-.71,1.41-1.06,2.05a8.24,8.24,0,0,0-1.27,3.22c0,.24,0,.48,0,.74a6.5,6.5,0,0,0,.22,2.6A.43.43,0,0,1,124.06,413.72Zm37.2-53.35h.07a.51.51,0,0,1,.43.57c-.06.45-.38,1.73-.75,3.22s-.84,3.38-.91,3.93a5.89,5.89,0,0,0,.22,3.23,21.81,21.81,0,0,1,1.21,6.4,64.9,64.9,0,0,1-1.31,7.64l-.52,2.22-2,4.26c0,.08-3.21,6.23-3.74,7.63-.06.13-.12.29-.2.48a15.27,15.27,0,0,0-.29,12.33l1.08,4c1.86,5.77,2.43,5.86,4.12,6.15a.49.49,0,0,1,.21.08,9.06,9.06,0,0,0,.29-1.85c0-1.16.76-3.26,2-6.27.94-2.23,1.75-9,2-11.31l-2.95,2.35a17.85,17.85,0,0,0-1.77,2.38.51.51,0,0,1-.92-.31c0-.27,1.86-27,19.13-48-5.24-1.44-10-6.47-11.89-8.7,0,.17,0,.25,0,.25-.07.32-1.39,5.06-5,6.38a10.12,10.12,0,0,0-.91.49l-.48.28c-1.11,2.12-2.13,4.73-2.14,4.75a17.55,17.55,0,0,1-.95,1.55.35.35,0,0,1-.05.13c-.14.23-3.47,5.72-4.7,7.1a7,7,0,0,1-2.41,1.56l.33.15-3.13,6.68a16.6,16.6,0,0,1-1.87,7.69,88.11,88.11,0,0,1,10.39-1.58c2.66-.24,4.47-.28,5.16-.28l.17-.74a65,65,0,0,0,1.3-7.48,20.51,20.51,0,0,0-1.14-6,6.78,6.78,0,0,1-.29-3.73c.08-.61.51-2.36.93-4,.33-1.33.68-2.72.73-3.11A.51.51,0,0,1,161.26,360.37ZM79.68,421.22h0Zm59.72-5.82a2.42,2.42,0,0,0,.35,1.53,1.56,1.56,0,0,0,1.12.57c2.26.29,5.25.3,6.32-.24s1.77-1.54,1.58-2a3.57,3.57,0,0,0-.91-1.09,8.23,8.23,0,0,1-.85-.91c-.55-.71-1.5-2.37-1.18-3.58a7.87,7.87,0,0,0,.34-1.64c-.08-2,.07-3.16.5-3.75.52-.74,4.36-6.61,4.39-6.66s1.8-2.8,2.42-10.44a85.68,85.68,0,0,0-10.37,1.65c-.05,3.4-.11,9.61-.08,10.18v.14c.09,1.74.12,4.19-.75,5.4a9.23,9.23,0,0,0-1.68,4.13,10.68,10.68,0,0,1-.09,3.26c-.17.47-1.09,3.32-1.12,3.43ZM49.8,400a.46.46,0,0,1,.15.3s.33,3,1.37,4.26c.09.12.21.24.35.39a15.92,15.92,0,0,0,9.51,4l1.66.12c4.21.28,8.55.58,11-1.57-.14-1.79-.2-3.7-.26-5.54l0-.87a26.6,26.6,0,0,1,.72-7.06h0c-2.34-1.39-7.23-6.4-9.5-8.8a38.27,38.27,0,0,0-3.37,1.92,10.3,10.3,0,0,0-2,1.62,10.78,10.78,0,0,0-2.48,4.28,3.35,3.35,0,0,0-.07.53c-.09,1.46,1.49,2.73,1.67,2.87l0,0c1.25.15,2,.4,2.27.8a9.16,9.16,0,0,1,1,2.67,8.06,8.06,0,0,0,.45,1.39l3.49,2.85-.63.78-3.54-2.89c-.29-.24-.44-.77-.74-1.86A9.23,9.23,0,0,0,60,398s-.25-.29-1.88-.45c-1-.1-2.18-.11-3-.12h-.73A17.53,17.53,0,0,0,49.8,400Zm-2.5-9.32c-1.14.26-4.23,2.11-4.42,3.85,0,.28-.08.61-.14,1-.26,1.64-.65,4.12.46,5.38a3.07,3.07,0,0,0,2.49.9h0a20,20,0,0,0,2.8-1.88,3.45,3.45,0,0,0,.27-.29c.69-.9,4.69-3.29,5.73-3.29h0l.68,0,1.78,0a4.08,4.08,0,0,1-1.15-2.85,1.49,1.49,0,0,0,0-.21,28.35,28.35,0,0,0-3.62-2.18l-.94-.13-1.19-.17a12.74,12.74,0,0,0-2.46-.21ZM125,401.33h0Zm1-6.71c0,.34-.13,1-.23,1.62a5.78,5.78,0,0,1-.56,2.12,6.7,6.7,0,0,0-.67,2.27,1.39,1.39,0,0,0,.42.69s.1,0,.26-.27l1-1.33,1-1.62.09-.11c.91-3,1.71-5.89,1.71-5.89a45.2,45.2,0,0,1,1.68-8.26c-.43-.24-1.51-.63-2.91.67s-1.7,1.54-1.82,1.65l-.49.67c-.82,1.1-.82,1.1-.94,1.41a30.88,30.88,0,0,0-.83,3.63s0,1.48-.51,1.88a4,4,0,0,1-1.91.93.67.67,0,0,1-.37-.22,6.75,6.75,0,0,0-1.38-1.62l-.3,0a.77.77,0,0,1,0,.45,1.14,1.14,0,0,1-.71.57l-.09,0a1.91,1.91,0,0,0,.28.26l1.51,1.32a6.81,6.81,0,0,0,2,1.26,2.29,2.29,0,0,0,2.45-.82.52.52,0,0,1,.21-.18c.09-.62.16-1.18.19-1.37a1.19,1.19,0,0,1-.22-.23,3.68,3.68,0,0,1-.25-2.61l0-.23a.48.48,0,0,1,.56-.45.5.5,0,0,1,.44.55l0,.28c-.06.44-.22,1.47.07,1.86a.31.31,0,0,0,.25.14.67.67,0,0,0,.67-.67,4.38,4.38,0,0,1,.6-1.94,2.8,2.8,0,0,0,.19-.4.52.52,0,0,1,.63-.34.51.51,0,0,1,.33.64,3.43,3.43,0,0,1-.26.57,3.32,3.32,0,0,0-.48,1.53A1.67,1.67,0,0,1,126.06,394.62Zm-39.89,3.11a5.18,5.18,0,0,0,4,1.62c.1,0,.21,0,.31,0a11.42,11.42,0,0,0,7.72-4.54c1.6-3,2.65-6.91-1.89-12.63a.51.51,0,0,1,.08-.71.5.5,0,0,1,.71.09c4.53,5.71,3.81,9.89,2.36,13,4.45-1.2,5.09-7.32,5.18-8.59,0-.18-.24-1.12-.45-1.88,0,0-.44-2-.88-3.71-.17-.66-3.32-5.26-5.5-8.33a3.56,3.56,0,0,0-.59-.53c-2-1.38-6-2.59-7.4-3a1.82,1.82,0,0,1-.88.54,6,6,0,0,1-3.25.13,5.2,5.2,0,0,0-1-.43l-.31.23c-.11.09-.23.17-.32.23a1.93,1.93,0,0,1-.38.16,3.54,3.54,0,0,0-.92.49c-.37,1-.47,1.32-.5,1.43A17.85,17.85,0,0,0,82,373.4v.25c0,.58-.06,1.31-.66,1.62a4.32,4.32,0,0,1-1.69.81,3.33,3.33,0,0,1-2.36-.38c-.26-.22-.54-.51-.82-.8a7.85,7.85,0,0,0-.78-.76l-.15-.13-4.59,2c-.28.08-5.14,1.28-6.4,1.43-1.5.14-5.57,1.23-5.46,3.44.05.88,0,1.58,0,2.16,0,1.28,0,1.66.45,2a13.69,13.69,0,0,0,1.68,1.13c1.12-.7,2.25-1.31,2.89-1.63l-.71-.75a.52.52,0,0,1,0-.72.51.51,0,0,1,.72,0l1.13,1.21c2,2.15,6.92,7.2,9.34,8.77a32.1,32.1,0,0,1,2-5.26,15.53,15.53,0,0,1,4.81-5.48.5.5,0,0,1,.46,0c9.2,3.36,9.72,5.81,9.45,8.23,0,.15,0,.3,0,.43-.11,1.8-2.76,2.46-3.8,2.65a20.54,20.54,0,0,1-1.55,4,.49.49,0,0,1,.24.17Zm-35.91-7.84c.42.05.83.12,1.18.17l.88.12a17.29,17.29,0,0,1,3.77,2.13,12.92,12.92,0,0,1,2.54-4.13,9.16,9.16,0,0,1,1.63-1.4,14.43,14.43,0,0,1-1.38-1c-.87-.69-.85-1.55-.82-2.84,0-.56,0-1.24,0-2.09-.16-3.2,5-4.36,6.35-4.49,1.19-.14,6.14-1.36,6.19-1.38l4.31-1.85a4.51,4.51,0,0,1-.4-2.73,9,9,0,0,1,1-2.82,4,4,0,0,0,.26-.56c0-.26-1-2.75-1.79-5-.37-.5-2.88-3.92-3.35-4.85a4.45,4.45,0,0,0-.33-.52A18.77,18.77,0,0,1,67.65,351a86.69,86.69,0,0,1-15.15.69,12.59,12.59,0,0,0-3,8.05,86.32,86.32,0,0,0,1,10.36A41.31,41.31,0,0,1,51,374.3a45.54,45.54,0,0,1-1.05,6.51l0,.18a14.62,14.62,0,0,0,.36,8.73A.33.33,0,0,1,50.26,389.89Zm-6.47-.35a12.68,12.68,0,0,0,3.37.17l.17,0c.09,0,.2,0,.3,0a.36.36,0,0,1,.18,0,13,13,0,0,1,1.35.09,15.59,15.59,0,0,1-.28-9l0-.18a46.11,46.11,0,0,0,1-6.31c0-.64-.21-2.24-.46-4.09a87.88,87.88,0,0,1-1-10.5,13.55,13.55,0,0,1,2.75-8.13,49.15,49.15,0,0,1-5.09-.63l0,0s-4.43,3.16-4.36,10.51c0,1.35.06,2.79.11,4.28.22,6.53.47,13.93-2,18.4-.23.41-.48.8-.75,1.19-.71.84-1.16,1.77-1,1.95,0,0,0,.06.28.07l.88.05c1.42.06,2.54.1,3.47,1.15A4.41,4.41,0,0,0,43.79,389.54Zm-6-14.77a10.48,10.48,0,0,1-.9,3.36s-1.21,2.67-1.92,4.22c-.5,1.1-.56,1.21-.67,1.41a10.79,10.79,0,0,1-1.51,1.81l.06.13a21.45,21.45,0,0,0,4.25,1.3,5.47,5.47,0,0,1,1.24-2.26,12.22,12.22,0,0,0,.67-1.07c2.35-4.22,2.11-11.48,1.9-17.88-.05-1.49-.1-3-.12-4.3,0-6.19,2.8-9.56,4.13-10.8-.73-.16-1.44-.33-2.11-.53a15.39,15.39,0,0,0-3.87,10Zm3.15-25.23c-.63.38-3.13,2.29-4,9.44,0,.32-.45,8.66-1.56,12.1-2.14,4.58-6.63,9.18-6.82,9.38a1.36,1.36,0,0,0,.25,2l3.28,2.26.06.05a10.12,10.12,0,0,0,1.28-1.52c.11-.2.16-.3.64-1.35.71-1.54,1.9-4.19,1.9-4.19a8.18,8.18,0,0,0,.83-2.86.29.29,0,0,1,0-.13l1.16-14.65a16.38,16.38,0,0,1,3.8-10.27Zm57.71,21.88c.75,1.06,4,5.62,5.21,7.74l3-.69,3.68-.84a5.17,5.17,0,0,0,2.06-1.72c.17-.47.82-.63,1.5-.8l.4-.12a23.4,23.4,0,0,0,2.73-1.61,2.26,2.26,0,0,1,2-.3,1.51,1.51,0,0,1,.93,1.05c.51,0,1.42-.13,2.24-.23a1.51,1.51,0,0,0,.86-.75,3.41,3.41,0,0,0,0-2.33,6.12,6.12,0,0,0-2.31-2,.49.49,0,0,1-.24-.32.51.51,0,0,1,.07-.4c.7-1,.08-1.59,0-1.69a.51.51,0,0,1-.17-.24,2,2,0,0,0-1.79-1.31,6.07,6.07,0,0,0-.8-.08h-.16c-.69,0-4-2.46-4-2.49a24.48,24.48,0,0,0-3.87-.51c-1.17-.1-2.27-.2-3-.33-1.6-.23-2.76,1.07-3.25,1.63l-.13.15a3.68,3.68,0,0,1-2,1.29c-.25,0-.77.48-1.57,1.38l-.18.19c-.31.34-.78.78-1,1l-.2.18-.12.08c-.68.32-.59,2.23-.31,3.43a.13.13,0,0,1,0,.06,3.34,3.34,0,0,1,.6.58l0,0h0ZM73.18,316.48a.48.48,0,0,1,.26.07.49.49,0,0,1,.17.69,89.43,89.43,0,0,0-4.4,8.23,30.12,30.12,0,0,0-1.28,5.91c-.06.49-.1.85-.11,1s0,.56,0,1.06a57.35,57.35,0,0,1-.32,7c-.07.54-.11,1-.13,1.5a9.75,9.75,0,0,0,.28,3.15,32.48,32.48,0,0,0,.86,5.15,18,18,0,0,0,2.65,5.89c.17.26.31.47.39.63.38.76,2.51,3.69,3.29,4.75a.54.54,0,0,1,.07.13c1.91,5,1.89,5.36,1.88,5.49a2.81,2.81,0,0,1-.37.93,8.06,8.06,0,0,0-.92,2.51,3.23,3.23,0,0,0,.53,2.5,2.33,2.33,0,0,0,.26.28,9.45,9.45,0,0,1,.87.83,7,7,0,0,0,.73.72,2.55,2.55,0,0,0,1.52.17,3.71,3.71,0,0,0,1.37-.67c.15-.13.16-.59.17-.81l0-.27a17.86,17.86,0,0,1,.37-2.3c.06-.22.21-.65.46-1.32a.46.46,0,0,1,0-.2,2,2,0,0,1,.11-.2l0,0a3.33,3.33,0,0,1,1.39-.86l.24-.1a1.6,1.6,0,0,0,.23-.16,1.71,1.71,0,0,1,.87-.43c.32-.08.75.15,1.38.51a3,3,0,0,0,1,.08,5,5,0,0,0,1.59-.25l.27-.1a3.4,3.4,0,0,0-.68-.37,9.75,9.75,0,0,1-2.73-1.52,3.77,3.77,0,0,0-1.92-.74c-1.28-.08-3-4.78-3.36-5.93a29.87,29.87,0,0,1-1.34-9c0-2.66-1.57-6.18-2.43-8.07l-.38-.85a6,6,0,0,1-.33-.93c-.21-.9.08-1.26.29-1.39,1.34-1.23,2.14-3.92,2.68-5.7.13-.43.24-.81.34-1.11a3.92,3.92,0,0,1,2.55-2.53l.48-.22A8.89,8.89,0,0,0,84.58,327a11.89,11.89,0,0,0,1.59-3.19,7.86,7.86,0,0,0-.41-5.84,8.39,8.39,0,0,0-2.41-2.92,9.4,9.4,0,0,0-1.58-1,11.75,11.75,0,0,0-4.62-1.18.66.66,0,0,1-.2.06c-1.14.09-11.14,1-14.21,4.33-3.67,4-5,6.27-2.86,8.91s4.73,5.45,7,4.61l.09,0a29,29,0,0,1,1.29-5.68,81.73,81.73,0,0,1,4.47-8.38A.5.5,0,0,1,73.18,316.48Zm64.29,45.08a4.37,4.37,0,0,1-1.07,1.71c-.41.29-2.85,3.46-2.42,5.4.38,1.73,1.17,4.49,1.47,5.52l10.46-1.25s.62-.16,1.38-.45a6.74,6.74,0,0,0,2.55-1.5,39.44,39.44,0,0,0,2.45-3.52,3.86,3.86,0,0,1-3.69.28c-.21-.1-1.15-.47-1.63-.66l-.9.84a.45.45,0,0,1-.2.12c-1.79.52-2.71-1.8-3.14-2.93-.06-.16-.12-.3-.16-.4a1.41,1.41,0,0,0-.9-.73c-.26,0-1.18-.18-1.37-.22a.43.43,0,0,1-.21-.09C139.74,363.41,138.25,362.25,137.47,361.56Zm3.14,1.25c.27.05.93.17,1.12.18a2.37,2.37,0,0,1,1.75,1.3c.05.12.12.28.19.47.31.81.92,2.51,1.81,2.34l1-1a.51.51,0,0,1,.53-.1l1,.42a.62.62,0,0,1,.14-.14l1-.61a.51.51,0,0,1,.53.87l-.58.34c.66.26,2.73.68,5.25-2.92a17.33,17.33,0,0,0,.95-1.53,54,54,0,0,1,2.23-4.95.57.57,0,0,1,.24-.22c.1,0,.32-.17.56-.31a9.66,9.66,0,0,1,1.06-.57c3-1.11,4.28-5.32,4.35-5.56,0,0,0-.61,0-1.46a.5.5,0,0,1,.48-.52h0a.52.52,0,0,1,.46.19c.06.08,6.31,8.19,12.88,9.56a7.63,7.63,0,0,0,5.21-.62c-7.05-2.06-11.14-5.19-12.18-9.33-1.62-6.44,4.81-13.32,6.81-15.28a5.37,5.37,0,0,0-3.88.37c-6.15,2.55-9.16,12.46-9.17,12.55a.54.54,0,0,1-.54.45.51.51,0,0,1-.46-.55c0-.62,3.19-10.34,9.4-13.2-8.54-.9-17.5,2.91-21.11,4.67l-.24.12a11.57,11.57,0,0,0-3.61,2.66c1,0,1.24.1,1.36.17a15.56,15.56,0,0,0,2,.89,7.08,7.08,0,0,0,1.36.44,11.34,11.34,0,0,1,2.12.61c.5.17,1.18.4,1.33.42.88.05,1.73.17,2.06.64a.76.76,0,0,1,.11.67,3.25,3.25,0,0,1-.18.5l-.07.19c.59.3,1.36.81,1.2,1.42a2.38,2.38,0,0,1-.22.51,2.49,2.49,0,0,0-.24.6,10.06,10.06,0,0,0,.55,1,7.75,7.75,0,0,1,.63,1.14,1.86,1.86,0,0,1-.23,2l-.1.08-.17.16a1.5,1.5,0,0,1-.35,1.67,3.9,3.9,0,0,0-.41.58,5.47,5.47,0,0,1-.43.58c-.1.12-.25.34-.43.6a6,6,0,0,1-1.09,1.34,2.27,2.27,0,0,1-.94.3,2.41,2.41,0,0,0-.57.15c-.24.79-2.17,1.28-2.55,1.24l-.47.21a3.1,3.1,0,0,1-2.13.43.87.87,0,0,1-.5-.48,5.37,5.37,0,0,1-.17-2.93,2.51,2.51,0,0,1,.61-.92,3,3,0,0,0,.3-.38,1.06,1.06,0,0,0,0-.64c-1.2-1.22-.7-2.08-.3-2.49a21.91,21.91,0,0,0,2.55-4.39,1.77,1.77,0,0,0-.05-1.33c-.19-.15-2-1.17-2.32-1.33a20,20,0,0,0-3.15-.61h-1.07a3.81,3.81,0,0,0-1.56.21,16.87,16.87,0,0,1-1.57.75c-.39.16-.88.38-1,.45s-1.06.93-1.54,1.38l-1.8,1.54h0s-2,2-2.18,6.21a16.56,16.56,0,0,0,.18,3.25,7.52,7.52,0,0,0,1.4,3.27C138,360.76,139.54,362,140.61,362.81Zm6.31-20.37a18.42,18.42,0,0,1,3.59.7,20.73,20.73,0,0,1,2.66,1.58,2.58,2.58,0,0,1,.23,2.34,22.34,22.34,0,0,1-2.77,4.74c-.25.25-.28.5.27,1.06l.09.09a1.84,1.84,0,0,1,.14,1.65,2.41,2.41,0,0,1-.48.68,2,2,0,0,0-.4.55,4.43,4.43,0,0,0,.14,2.24h0a8.29,8.29,0,0,0,1.29-.48,2.92,2.92,0,0,1,.93-.3h0a3.51,3.51,0,0,0,1.57-.62c.16-.55.8-.66,1.31-.75a2.17,2.17,0,0,0,.52-.13,6.91,6.91,0,0,0,.85-1.09c.22-.31.41-.58.52-.7a5.08,5.08,0,0,0,.33-.47,4,4,0,0,1,.59-.77.68.68,0,0,0,.13-.45.63.63,0,0,1-.19-.51,1.29,1.29,0,0,1,.58-.87l.09-.08a1.19,1.19,0,0,0-.05-.89,7.74,7.74,0,0,0-.54-.95,6.19,6.19,0,0,1-.66-1.25,1.89,1.89,0,0,1,.31-1.28l.09-.19a3.67,3.67,0,0,0-.81-.49c-.65-.31-.37-1-.22-1.37a2.6,2.6,0,0,1,.1-.25,4.42,4.42,0,0,0-1.21-.19,8,8,0,0,1-1.6-.47,13.85,13.85,0,0,0-1.87-.56,7.13,7.13,0,0,1-1.66-.5,16,16,0,0,1-2.14-1h-.36a9.63,9.63,0,0,0-1.1.07c-.57.06-1.11.14-1.37.18s-.57.18-1,.31a7.5,7.5,0,0,1-2.06.56,5,5,0,0,0-.88.44,10.32,10.32,0,0,1-2.11,1c-.38.12-.5.37-.7.88a2.35,2.35,0,0,1-1.89,1.74,1.46,1.46,0,0,0-1,.75,6.19,6.19,0,0,0-.49,1.23A2.28,2.28,0,0,1,135,350a1.65,1.65,0,0,0,0,.71s0,0,0,.07,0,.15,0,.21a3.48,3.48,0,0,1,.09,1.59.76.76,0,0,0,.1.58,10.18,10.18,0,0,1,2.45-6.15l1.81-1.54c.12-.11,1.29-1.2,1.63-1.44a6.79,6.79,0,0,1,1.17-.56c.53-.24,1.13-.5,1.45-.69a5.36,5.36,0,0,1,2.56-.35h.57Zm31.65-8.72a.41.41,0,0,1-.09.1c-1.42,1.33-8.43,8.31-6.84,14.61,1,3.93,5.14,6.91,12.37,8.86.29-.19.65-.41,1.07-.66,1.78-1.07,4.76-2.87,5.64-4.43a.53.53,0,0,1,.12-.14l4.38-3.58s4.1-3.86,4.1-6.74a7.46,7.46,0,0,0-2.59-5.34,6.71,6.71,0,0,0-5.61-1.45L187.76,336a.48.48,0,0,1-.46-.08,10.69,10.69,0,0,0-7.28-2.15A8.17,8.17,0,0,1,178.57,333.72ZM107.22,336a68.56,68.56,0,0,0-2.1,7.36c-.12.85-.16,1.27-.18,1.51a2.24,2.24,0,0,1-.16.72,5.7,5.7,0,0,1-1,1.41c-.8,1-2,2.5-1.89,3.41a.78.78,0,0,0,.34.54l1,.71c1.23.86,1.75,1.21,2.09,2.11.45.57,5.52,1.34,6.65.82.67-.3,1.38-2.7,1.64-4.22a7.48,7.48,0,0,0-.19-2.8,8.16,8.16,0,0,0-.44-1.32,9.8,9.8,0,0,1-.89-4.09,4.49,4.49,0,0,0-.89-2.43l-.19-.24a3.69,3.69,0,0,1-1-3c.2-1.4,1.4-3.72,2.31-4.07.1,0,.2-.08.32-.13l.19-.09-.29.11a.48.48,0,0,1-.31,0,2.88,2.88,0,0,0-3.15,1.7.41.41,0,0,1-.17.2,5.83,5.83,0,0,0-1.68,1.79Zm52,15.69h0Zm-118-3.09c.47.19,1,.35,1.46.5a30.51,30.51,0,0,0,3.29.8,48,48,0,0,0,6.23.74A82.64,82.64,0,0,0,67.4,350a32,32,0,0,1-.74-4.66h0a9.15,9.15,0,0,1-.32-2.59l-.09.06c-1.07.77-3.21,2.29-5.51,3.8-3.07,2-5.82-.15-7.46-1.46-.25-.2-.49-.39-.71-.55-1-.74-3.27-.31-5.43.11-.8.15-1.62.31-2.41.42a5.7,5.7,0,0,1-4.57-1.72C39.75,344,39.29,345.58,41.22,348.58ZM124,350.42a2.45,2.45,0,0,0,1.22-.2,5.81,5.81,0,0,0,1.58-1.12c.67-.51.6-.86.49-1.48a2.79,2.79,0,0,1,0-1.41c.24-.74-.52-1.53-.53-1.54a.52.52,0,0,1-.1-.56.54.54,0,0,1,.29-.27,7,7,0,0,0-.87-.75.73.73,0,0,1-.29-.77,1,1,0,0,0-.07-.57,9.75,9.75,0,0,1-.59-2c0-.2-.16-.78-.24-1.09l0-.21a1.7,1.7,0,0,0-.95-1.22.52.52,0,0,1-.34-.46c0-.38-.52-.8-.7-.91a.51.51,0,0,1-.22-.49c.08-.66-.2-.81-.67-1.05a1.51,1.51,0,0,1-.89-.88,3.18,3.18,0,0,0-1.37-1.07.52.52,0,0,1-.2-.19,3.27,3.27,0,0,0-2-1,6.37,6.37,0,0,0-1.45.34,9.3,9.3,0,0,1,1.76.25.57.57,0,0,1,.22.11s1.16,1,1.38,1.2a3.23,3.23,0,0,0,.28.2,16.27,16.27,0,0,1,1.48,1.09,3.28,3.28,0,0,1,1.05,1.78.51.51,0,0,1-.43.57.53.53,0,0,1-.57-.43,2.38,2.38,0,0,0-.7-1.16c-.43-.36-1-.76-1.39-1l-.34-.23c-.2-.16-1-.9-1.33-1.16a6.48,6.48,0,0,0-4.46.42l-.38.17a6.17,6.17,0,0,0-1.66,3.26,2.7,2.7,0,0,0,.83,2.25l.2.26a5.42,5.42,0,0,1,1.1,3.11,8.64,8.64,0,0,0,.42,2.6,25.33,25.33,0,0,0,8,1.07h0l.21-.1a10.34,10.34,0,0,0,2-1.17c.07-.12.09-.58-.34-2a2.07,2.07,0,0,1-.13-.64c0-.07,0-.3-.08-.61a10.16,10.16,0,0,1-2.49.93.5.5,0,0,1-.22-1,8.8,8.8,0,0,0,2.33-.9.5.5,0,0,1,.23-.09l-.06-.37c-.11-.74-.21-1.42-.22-1.57a.5.5,0,0,1,.47-.53.49.49,0,0,1,.53.47c0,.15.11.78.22,1.48a20.42,20.42,0,0,1,.29,2.23h0a1.75,1.75,0,0,1,.1.3c.37,1.26.67,2.55,0,3.1a10.13,10.13,0,0,1-2,1.21,3.27,3.27,0,0,0,1,2.82,1.7,1.7,0,0,1,.31.36C123.78,350,123.91,350.23,124,350.42Zm4.25-3.14L134,350a1,1,0,0,1,.53-.88,3.25,3.25,0,0,0,.32-.83,6.72,6.72,0,0,1,.58-1.46,2.45,2.45,0,0,1,1.64-1.21c.78-.15.94-.57,1.16-1.13a2.06,2.06,0,0,1,1.34-1.47,9,9,0,0,0,1.9-.89,3.56,3.56,0,0,1,1.44-.57h0a9.85,9.85,0,0,0,1.66-.5c.43-.15.82-.28,1-.33l1-.15a.49.49,0,0,1,.11-.33,12.28,12.28,0,0,1,3.68-3.06c-4.79-3.62-5.15-7.25-5.06-8.72l-.42.3c-.48,2.14-.86,2.35-1,2.43a.78.78,0,0,1-.5,0c-.12-.05-.51-.19-1.6-2a.51.51,0,0,1-.05-.4l1.06-3.72.36-3.6a12,12,0,0,1-6.07,1.71c-2-.52-3.25-3.24-3.74-4.58a1.79,1.79,0,0,0-.12.24,2.14,2.14,0,0,0,.07,1.15,8.56,8.56,0,0,1,.18.93,12.19,12.19,0,0,1-.21,3.48c-.24.91-1.47.88-1.72.88-.07,0-.62.31-1,.56a.52.52,0,0,1-.54,0,.5.5,0,0,1-.21-.49s.24-1.46.33-1.82c0-.16-.42-1.11-.65-1.68s-.37-.9-.45-1.16a56.12,56.12,0,0,1-.91-7,17.89,17.89,0,0,1,.92-3.61,12.18,12.18,0,0,0,.36-1.22,18.83,18.83,0,0,1,1.53-4.09,6.52,6.52,0,0,1,.69-1c-3-1.49-6,.61-6,.63a.46.46,0,0,1-.23.09l-3,.39c-.9.12-1.63.41-4.22,3.46a4.83,4.83,0,0,0-1,5.35.39.39,0,0,1,.06.18,2.41,2.41,0,0,1,1,.19c1.37.55,5.93,2.58,7.14,5.31a5.54,5.54,0,0,1,.47,1.83,2.35,2.35,0,0,1,1-.48l-1-4.07a.49.49,0,0,1,.36-.61.51.51,0,0,1,.61.36l1.5,5.79a.68.68,0,0,1,0,.14c2.64,7.55-.27,12.05-.4,12.24s-1.25,2.78-1.92,4.33a5,5,0,0,1,.11.6,8,8,0,0,0,.49,1.67,1.9,1.9,0,0,1,.18,1.1c.41.3,1.28,1,1.24,1.62a.84.84,0,0,1-.16.47,2.45,2.45,0,0,1,.38,2.06A1.63,1.63,0,0,0,128.26,347.28ZM93,338a6.7,6.7,0,0,0-2,1,5.35,5.35,0,0,0-.91,3.05c0,.3,0,.59,0,.88,0,1.26,0,1.94.91,2.3a8.42,8.42,0,0,1,1.07.55l.2.11c1.54.89,3.46,2,5.43.66.1-.06,1.18-.63.79-2.51a.5.5,0,0,1,.24-.53,2,2,0,0,0,.83-1,.64.64,0,0,0-.1-.54l-.75-1.23a.49.49,0,0,1,0-.47A.52.52,0,0,1,99,340l2.43-.4a2.19,2.19,0,0,0,.43-.22c-.88-.16-1.7-.3-1.84-.3-.3,0-2.23-.32-2.78-.4l-.16,0c.26.57.34,1.15-.11,1.44-.24.17-1.82,1-2.71.54l-.54-.28a.5.5,0,1,1,.46-.89l.55.28c.22.13,1.06-.13,1.54-.39a4,4,0,0,0-.31-.66Zm-42.13,5.2a3.89,3.89,0,0,1,2.31.6c.23.16.48.36.75.58,1.61,1.28,3.82,3,6.28,1.41,1.88-1.25,3.66-2.49,4.82-3.32l-3.91-1.29c-.25-.08-.92-.33-1.76-.64a32.93,32.93,0,0,0-4.16-1.4,13.23,13.23,0,0,1-4.47-1.71c-1.12-.75-3.4-4.09-3.35-5.13,0-.65.31-3.62.69-6.06-1.09.48-3.87,2.1-6.58,7-.15.19-2.42,2.91-3.25,3.65a1.48,1.48,0,0,0-.22,1,4.68,4.68,0,0,0,.73,2.64,6.71,6.71,0,0,1,.55.58c.31.35.71.8,1.18,1.25,1.47,1.4,2.8,2,4.13,1.81.77-.11,1.57-.26,2.36-.41A21.82,21.82,0,0,1,50.85,343.17Zm30.25-4.51a4.15,4.15,0,0,0,0,2.54A7.07,7.07,0,0,0,87,345.72l3,.13c-1-.73-1-1.89-.93-2.94,0-.27,0-.55,0-.82a6.32,6.32,0,0,1,1.1-3.68A7.39,7.39,0,0,1,92.79,337a.48.48,0,0,1,.29,0l.73.19a18.11,18.11,0,0,0-2.75-2.36.42.42,0,0,1-.16-.19l-.09,0c-2.51,1.12-7.11,2.72-7.16,2.74Zm45.48,3.56,0,0,0,0ZM70.92,312.6a20.07,20.07,0,0,0-4,.32l-1.43.32c-2.91.63-6.22,1.35-7.53,2.16a10.59,10.59,0,0,0-2.26,2.46,9.85,9.85,0,0,1-2.36,2.52l-.62.35c-1.3.71-2.78,1.52-3.25,3.41-.11.44-.21,1-.31,1.53-.43,2.5-.75,6-.79,6.66a11.62,11.62,0,0,0,2.89,4.23,12.53,12.53,0,0,0,4,1.54,26.45,26.45,0,0,1,4.46,1.46c.76.29,1.47.56,1.7.62L66,341.69l.06,0,.27-.21.09-.05c0-.35.06-.73.11-1.13a56.81,56.81,0,0,0,.31-6.86c0-.53,0-.93,0-1.12s0-.27,0-.47c-2.76.67-5.47-2.15-7.77-5.06-2.76-3.48-.42-6.55,2.91-10.21,2-2.17,6.33-3.36,9.87-4Zm14.26,15.31a9.27,9.27,0,0,1-2.67,2.58l-.52.23a3,3,0,0,0-2,1.94c-.1.3-.21.67-.34,1.08-.53,1.77-1.31,4.38-2.68,5.87l6.29-3.16c.11,0,4.67-1.63,7.14-2.73a6.77,6.77,0,0,0,1.34-.69,9.71,9.71,0,0,0,.11-1.52l-.34.25-2.57,1.71a.5.5,0,0,1-.56-.84L91,330.92a3.65,3.65,0,0,0,.8-.72,6.1,6.1,0,0,0,1.09-4.07L85.62,328A.51.51,0,0,1,85.18,327.91Zm11.24,11.42h0Zm50-11.23c-.1.53-.66,4.55,5,8.61a51.3,51.3,0,0,1,13.36-4.36,12.38,12.38,0,0,0-3-2.86,20.52,20.52,0,0,0-4.17-2.33.51.51,0,1,1,.38-.94,21.07,21.07,0,0,1,3.69,2,12.79,12.79,0,0,0-1.53-3.88,23.46,23.46,0,0,0-10.74-9.3,1.93,1.93,0,0,0-.08.77,5,5,0,0,0,.12.63c.28,1.29.43,2.17.05,2.61-.12.14-.27.28-.41.42a2.24,2.24,0,0,0-.41.44V320c-.05,1.12-.17,2.22-.75,2.68a1.78,1.78,0,0,0-.62,1c0,.06,0,.17,0,.32.11.87.31,2.5-.39,3.4A5.61,5.61,0,0,1,146.4,328.1Zm-3.62.8c.25.4.53.82.75,1.11a13.34,13.34,0,0,0,.45-1.63.52.52,0,0,1,.2-.3l.57-.41a1.47,1.47,0,0,1,.94-.29,3.87,3.87,0,0,0,.5-.54c.45-.58.27-2,.19-2.66a4.79,4.79,0,0,1,0-.5,2.67,2.67,0,0,1,1-1.75c.09-.07.31-.41.37-1.94v-.19a1.76,1.76,0,0,1,.72-1.08l.34-.34a10.31,10.31,0,0,0-.27-1.75,7.25,7.25,0,0,1-.14-.72,3.54,3.54,0,0,1,.3-1.71l.08-.23a14.65,14.65,0,0,0,.4-3.23,2.63,2.63,0,0,1,.25-1.27,5.38,5.38,0,0,0,.27-.89,14.14,14.14,0,0,0-1.37-3.47l-.56-1.2c-.58-1.27-2.77-1.38-2.8-1.38a.5.5,0,0,1-.34-.15c-2-2.09-5.87-1.72-5.91-1.72A21.4,21.4,0,0,0,135,301.8a24.13,24.13,0,0,0-2,2.05.24.24,0,0,1,0,.08.46.46,0,0,1-.3.29,8.4,8.4,0,0,0-.84,1.11,18.06,18.06,0,0,0-1.4,3.75c0,.22-.17.64-.4,1.37a18.71,18.71,0,0,0-.87,3.32,57.79,57.79,0,0,0,.86,6.64c.08.24.24.64.42,1.08.6,1.47.76,1.94.7,2.27,0,.14-.09.44-.14.76.47-.22.61-.22.7-.21a1.37,1.37,0,0,0,.68-.13,11.25,11.25,0,0,0,.18-3.08,7.84,7.84,0,0,0-.16-.86,2.86,2.86,0,0,1,0-1.71,3.92,3.92,0,0,1,.52-.88l.14-.2a1.72,1.72,0,0,0,.37-.95A9.63,9.63,0,0,1,134,313c.25-.35,1.27-2.17,1.57-2.77A3.1,3.1,0,0,1,138.1,309l.61.07a6.65,6.65,0,0,0,2.15.08c.39-.23,2.11-1.58,3.16-2.44a.49.49,0,0,1,.48-.08.51.51,0,0,1,.33.35c0,.07.41,1.75.49,2.29a7.92,7.92,0,0,0,1.6,2,6.27,6.27,0,0,1,1,3.4,1,1,0,0,1-.07.18l-3.54,5.85-.48,4.61ZM93,325.07a.71.71,0,0,1,.24.06L96.58,327a8,8,0,0,0,2.32.88c.3,0,.3-.07.32-.34a1.84,1.84,0,0,1,1.13-1.34l.2-.22-.71-.77a.51.51,0,0,1,0-.71.5.5,0,0,1,.71,0l.83.91a2.61,2.61,0,0,0,.77-.15,4.09,4.09,0,0,0,.69-.69.55.55,0,0,1,.8,0,1,1,0,0,0,.43.29h0a.87.87,0,0,0,.17-.45,38.58,38.58,0,0,1,1.8-5.18c.16-.39.29-.7.35-.86a5,5,0,0,1,.38-.82l-.37-.12a7.7,7.7,0,0,1-2.15-1l-1.33-1a2.83,2.83,0,0,1-.69,1.71,2.07,2.07,0,0,1-1.81.78,5.52,5.52,0,0,0-1,.69,8.24,8.24,0,0,1-.84.61c-.14.08-.3.2-.48.33a5.5,5.5,0,0,1-3,1.28c-.45.11-3.17.64-4.13.11a3,3,0,0,0-1.29,0c-.8.08-1.7.19-2-.59a2.08,2.08,0,0,0-.26-.47,9,9,0,0,1-.28,4.28,12.64,12.64,0,0,1-1.29,2.78l7-1.81Zm21.72.78a3.4,3.4,0,0,0,3.46,0,7.9,7.9,0,0,1,1.76-.82c.82-.29,1-.41,1.09-.78a3.06,3.06,0,0,0-.09-1c-.39-1.69-.41-1.7-.57-1.82a1.86,1.86,0,0,1-.3-.21,8.19,8.19,0,0,1-1.06-1l-.1-.1a.74.74,0,0,0-.42,0c-.13.18-.1.29,0,.49s.2.38.37.68l.75,1.27-.86.52s-.3-.5-.59-1l-.06,0-1.74-1a4.25,4.25,0,0,0-3.15-.49l-.86.09a9.58,9.58,0,0,0-3.52,1.17,8.42,8.42,0,0,0-1.19.61,1.57,1.57,0,0,0,1.28.53,2.91,2.91,0,0,0,.89,0l.1-.15a1,1,0,0,1,.89-.42.93.93,0,0,1,.71.42c.17.22,2,2,3.23,3.14Zm3.85-6.77a1.89,1.89,0,0,1,1,.3l.2.2a7.67,7.67,0,0,0,.94.9,1.91,1.91,0,0,0,.22.17c.52.34.55.5,1,2.42a7,7,0,0,1,.11.69,9,9,0,0,0,1.87-.57,2,2,0,0,0,.72-.62,2.76,2.76,0,0,0-.09-2.7c-1.08-2.44-5.68-4.41-6.59-4.78a1.88,1.88,0,0,0-1-.08,6.34,6.34,0,0,0-2.62,1.49c-.4.35-.62,1.84-.67,2.95a4.65,4.65,0,0,1,3.22.68l.54.32a1.42,1.42,0,0,1,.28-.95,1,1,0,0,1,.7-.41Zm15.53-1.52a.24.24,0,0,1,0,.08c.33,1.13,1.52,4.16,3.16,4.59a11.06,11.06,0,0,0,6-2l.08-.05h0l1.35-2.19a6.56,6.56,0,0,1-1.14-.25l0,.18a.49.49,0,0,1-.6.38.5.5,0,0,1-.38-.6l.07-.32c-.4-.18-.66-.33-.68-.34a.51.51,0,0,1-.18-.69.51.51,0,0,1,.69-.18,6.55,6.55,0,0,0,2.8.85h.05l1.6-2.6a6.88,6.88,0,0,0-.65-2.39c-.25-.22-1.82-1.83-1.93-2.62,0-.26-.17-.88-.29-1.42-.84.68-2.24,1.78-2.67,2a5.33,5.33,0,0,1-2.79.05A5.19,5.19,0,0,0,138,310a2.22,2.22,0,0,0-1.48.62c-.29.6-1.35,2.49-1.66,2.92a10.55,10.55,0,0,0-.51,3A2.41,2.41,0,0,1,134.07,317.56Zm-26.63,4.58h0Zm-17-2.31a2.06,2.06,0,0,1,1,.2A8.46,8.46,0,0,0,95,319.8a4.55,4.55,0,0,0,2.57-1.09,4.5,4.5,0,0,1,.57-.39c.2-.12.46-.33.72-.53.75-.58,1.23-.91,1.69-.91s.51,0,1.06-.49a3,3,0,0,0,.4-1.94.49.49,0,0,1,.25-.48.52.52,0,0,1,.55,0l2.09,1.58a6.45,6.45,0,0,0,1.87.89,7.73,7.73,0,0,1,1,.38,2.52,2.52,0,0,0,1.28.29c1-.15,1-.45,1.08-.74l0-.24c.44-1.74.6-3.94-1.17-4.46a.55.55,0,0,1-.32-.28s-1.42-3.11-3.9-2.66a.52.52,0,0,1-.4-.09s-3.57-2.65-7-2.1h-.17c-1.44-.26-5.48-.68-6.91.48a1.19,1.19,0,0,0-.48.93.51.51,0,0,1-.42.48c-2.22.35-4.65,1.25-4.61,2,0,.26-.11.66-.36.72,0,0-.63.13-.79.19s-1.36,1-1,1.93l0,.11a10.46,10.46,0,0,1,1.37.9,9.25,9.25,0,0,1,2.69,3.27,3.1,3.1,0,0,1,.21.45,4.38,4.38,0,0,1,1.76,2l.92-.07A7.25,7.25,0,0,1,90.46,319.83ZM115,379a.49.49,0,0,1-.38-.18.51.51,0,0,1,.05-.71l.09-.07a2.09,2.09,0,0,1-.71-.67.5.5,0,1,1,.87-.51,3.94,3.94,0,0,0,1.82.93.5.5,0,0,1,.36.61.51.51,0,0,1-.61.36,7,7,0,0,1-.74-.24l-.42.36A.54.54,0,0,1,115,379Zm32-15.52a.51.51,0,0,1-.37-.17l-.4-.43-1.42.29a.5.5,0,1,1-.21-1l4.18-.87a.5.5,0,1,1,.21,1l-1.61.34h0a.5.5,0,0,1,0,.71A.48.48,0,0,1,147,363.49ZM114.3,338a.45.45,0,0,1-.29-.1.49.49,0,0,1-.11-.7c.23-.31,1.43-1.87,2.49-2a1.07,1.07,0,0,1,.84.22.51.51,0,0,1,.08.71.52.52,0,0,1-.71.08l-.16,0,0,.07.19.28a.5.5,0,1,1-.83.57l-.19-.29a.16.16,0,0,1,0-.07,6.85,6.85,0,0,0-.91,1A.51.51,0,0,1,114.3,338Zm24.45-16.51h0a3.51,3.51,0,0,1-1.89-.73.51.51,0,0,1-.06-.71.52.52,0,0,1,.71-.06h0a2.47,2.47,0,0,0,1.3.49.5.5,0,0,1,.47.54A.5.5,0,0,1,138.75,321.49Zm-34.63,0a.49.49,0,0,1-.28-.09l-.91-.6-.25.37a.51.51,0,0,1-.7.14.5.5,0,0,1-.13-.7l.24-.37-.8-.54a.5.5,0,0,1,.55-.84l2.56,1.71a.5.5,0,0,1,.14.69A.51.51,0,0,1,104.12,321.46Zm35-1.62h0c-.7,0-1.1-.19-1.3-.46a.71.71,0,0,1-.1-.51.49.49,0,0,1,.62-.35.54.54,0,0,1,.31.24,2.53,2.53,0,0,0,.54.08.5.5,0,0,1,0,1Zm-.46-.7Zm0,0Zm0,0Zm0,0Zm0,0Zm-1.42-3.23h-.06a.51.51,0,0,1-.43-.57l.05-.4a7.71,7.71,0,0,1-1.11-.53.5.5,0,0,1-.17-.69.51.51,0,0,1,.69-.17,6.48,6.48,0,0,0,2.79.85.5.5,0,0,1,.5.51.52.52,0,0,1-.51.5h0a6.08,6.08,0,0,1-1.21-.16l0,.22A.51.51,0,0,1,137.24,315.9Z" transform="translate(-13.5 -269.31)"/><path class="cls-2" d="M161.84,411.71l-.13,0c-2.49-.74-3.88-1.8-4.14-3.15-.36-1.85,1.59-3.43,1.67-3.5a.46.46,0,0,1,.64.07.45.45,0,0,1-.07.64s-1.6,1.31-1.35,2.62c.19,1,1.4,1.82,3.51,2.45a.45.45,0,0,1,.3.56A.46.46,0,0,1,161.84,411.71Z" transform="translate(-13.5 -269.31)"/><path class="cls-2" d="M198.18,408.7h-.07a.5.5,0,0,1-.43-.57c.22-1.68-.09-6.27-.45-11.58-.53-7.86-1.14-16.76-.39-21a42.2,42.2,0,0,0,0-13.42.5.5,0,0,1,.4-.59.5.5,0,0,1,.59.39,42.35,42.35,0,0,1,0,13.8c-.73,4.13-.1,13.36.4,20.77.37,5.36.68,10,.45,11.79A.51.51,0,0,1,198.18,408.7Z" transform="translate(-13.5 -269.31)"/><path class="cls-2" d="M182.26,344a.51.51,0,0,1-.36-.15.5.5,0,0,1,0-.71l4-4a.51.51,0,0,1,.71,0,.51.51,0,0,1,0,.72l-4,4A.49.49,0,0,1,182.26,344Z" transform="translate(-13.5 -269.31)"/><path class="cls-2" d="M188.26,414.3a.52.52,0,0,1-.37-.16c-.06-.06-6-6.27-11.42-12.34a.51.51,0,0,1,.05-.71.48.48,0,0,1,.7.05c5.37,6,11.34,12.24,11.4,12.3a.51.51,0,0,1-.36.86Zm-94-3.68a.52.52,0,0,1-.38-.17.51.51,0,0,1,0-.71c1.45-1.27,5.34-4.92,5.84-6.67.92-1.89,1.69-4,1.7-4a30.47,30.47,0,0,0,1.63-6.14c.12-.7.23-1.37.4-2a.5.5,0,0,1,.61-.35.5.5,0,0,1,.36.61c-.15.59-.26,1.2-.38,1.91a31.64,31.64,0,0,1-1.68,6.32c0,.09-.8,2.15-1.7,4-.66,2.3-5.9,6.87-6.12,7.07A.52.52,0,0,1,94.21,410.62Zm10.26-27.23A.49.49,0,0,1,104,383c-1.2-3.75-9.4-7-9.49-7.05a.5.5,0,1,1,.37-.93c.36.14,8.73,3.47,10.08,7.68a.51.51,0,0,1-.33.63A.39.39,0,0,1,104.47,383.39Zm-22.77-.14a.49.49,0,0,1-.32-.12.5.5,0,0,1-.07-.71c.09-.11,2.3-2.71,7.29-2.71,0,0,2.06-.1,3.71-.1a.5.5,0,0,1,0,1c-1.62,0-3.67.1-3.69.1-4.51,0-6.51,2.33-6.53,2.36A.51.51,0,0,1,81.7,383.25Zm83.76-4a.51.51,0,0,1-.5-.44,50,50,0,0,1-.35-7.78.49.49,0,0,1,.54-.48.52.52,0,0,1,.47.53,48.64,48.64,0,0,0,.34,7.61.5.5,0,0,1-.44.56Zm-92.35-4.16a.5.5,0,0,1-.48-.35c0-.05-1.57-5-2.67-10.26a31.8,31.8,0,0,1-.68-9.27.58.58,0,0,1,.56-.44.49.49,0,0,1,.44.55,31.33,31.33,0,0,0,.66,8.95c1.09,5.24,2.64,10.12,2.65,10.17a.5.5,0,0,1-.33.63A.39.39,0,0,1,73.11,375.09Zm52.52-3-.16,0a.51.51,0,0,1-.32-.64c.62-1.9,3.82-11.46,6.18-12.4a.5.5,0,0,1,.66.28.5.5,0,0,1-.28.65c-1.49.6-4.23,7.54-5.6,11.78A.5.5,0,0,1,125.63,372.06ZM156,362.91l-.18,0a.5.5,0,0,1-.29-.65,34,34,0,0,0,1.3-5.32.54.54,0,0,1,.58-.42.49.49,0,0,1,.41.57,33.87,33.87,0,0,1-1.35,5.52A.51.51,0,0,1,156,362.91Zm2.7-1.58a.5.5,0,0,1,0-1l9.14-.46h0a9.15,9.15,0,0,0,3-1,.5.5,0,0,1,.69.16.49.49,0,0,1-.16.69,10,10,0,0,1-3.48,1.12l-9.18.46ZM116.09,355a14.47,14.47,0,0,1-2.91-.28.5.5,0,0,1-.38-.6.48.48,0,0,1,.6-.38c.08,0,7.82,1.68,9.46-3.69a.5.5,0,0,1,1,.3C122.63,354.3,118.81,355,116.09,355Zm48.2-5.16a.5.5,0,0,1-.5-.48A5.58,5.58,0,0,0,162,345a6.12,6.12,0,0,0-4.46-.93.5.5,0,1,1-.19-1,7,7,0,0,1,5.27,1.13,6.47,6.47,0,0,1,2.22,5.12.5.5,0,0,1-.48.52ZM121.63,340a.5.5,0,0,1-.22-.95,3.24,3.24,0,0,0,1.32-1.09,21.46,21.46,0,0,0-3-1.8,1.24,1.24,0,0,1-.87-1,1.81,1.81,0,0,1,.76-1.46.5.5,0,0,1,.7.09.49.49,0,0,1-.08.7,1.1,1.1,0,0,0-.39.53.65.65,0,0,0,.26.17,24.54,24.54,0,0,1,3.57,2.15.49.49,0,0,1,.2.52,3.49,3.49,0,0,1-2,2.05A.59.59,0,0,1,121.63,340Z" transform="translate(-13.5 -269.31)"/><path class="cls-2" d="M104.55,383a.49.49,0,0,1-.38-.18.51.51,0,0,1,.06-.71l1-.82a.5.5,0,1,1,.65.77l-1,.82A.52.52,0,0,1,104.55,383Z" transform="translate(-13.5 -269.31)"/><path class="cls-2" d="M556.33,430.43c1.15,1.36,4.24,4.67,10.74,4.67,7.23,0,11.84-4.3,11.84-10,0-4.5-3.88-7.65-6.34-8.69v-.16A9.63,9.63,0,0,0,578,408c0-5.87-4.87-9.59-10.94-9.59-5.71,0-9.69,4.61-9.69,4.61a.93.93,0,0,0,0,1.36l1.93,1.73a.89.89,0,0,0,1.36-.1,8,8,0,0,1,6.08-2.94,5.74,5.74,0,0,1,6,5.71c0,3.09-2.46,5.61-7.38,5.61h-2.93c-.74,0-1.05.31-1.05,1.1v2.25a1,1,0,0,0,1,1.1h2.93c5.61,0,8.28,3,8.28,6.13,0,3.51-3.14,5.65-6.55,5.65a10.52,10.52,0,0,1-7.12-3.24.91.91,0,0,0-1.41-.11l-2,1.89a.89.89,0,0,0-.06,1.25m-15.71-.05c-5.71,0-7.65-6-7.23-10.37.31-.94,3-4,7.18-4a7.18,7.18,0,0,1,0,14.35m-12.31-9.95c0,8.07,4,14.67,12.36,14.67a11.93,11.93,0,0,0,11.68-12c0-7.23-5.39-11.36-10.94-11.36a14.94,14.94,0,0,0-7,1.93c1.73-6.44,10.06-10.79,12.46-11.57,1-.32,1.21-.89,1-1.52l-.89-2.15a1,1,0,0,0-1.31-.63c-4.82,1.84-17.34,8-17.34,22.63m-24.14,4.71c0-2.77,2.4-5.65,6.65-6.28,4.24.63,6.65,3.51,6.65,6.28,0,3.51-3,5.71-6.71,5.71-3.45,0-6.59-2.25-6.59-5.71m6.65-11.31c-4.09-.63-5.87-2.78-5.87-5.6a5.51,5.51,0,0,1,5.71-5.5c3.46,0,6,2.3,6,5.5,0,2.77-1.83,5-5.86,5.6M498.72,425c0,5.71,4.66,10.06,12,10.06,7.6,0,12.21-4.35,12.21-10.06,0-4.5-3.93-7.65-6.34-8.75v-.21c2.25-1.15,5.39-4,5.39-8.06,0-5.76-4.76-9.59-11.21-9.59-6.28,0-11.1,3.83-11.1,9.59,0,4.08,3.14,7,5.39,8.11v.16c-1.93.89-6.33,4.19-6.33,8.75m-25.14,9.53H491.8a1,1,0,0,0,1-.94v-2.25a1,1,0,0,0-1-1H486V400a1,1,0,0,0-.94-1h-2.57l-7.8,7.07a1,1,0,0,0-.16,1l.63,1.84a.8.8,0,0,0,1.15.37l4.56-2.31v23.41h-7.33a1,1,0,0,0-1,1v2.25a1,1,0,0,0,1,.94m-47.73-18.28a13.6,13.6,0,1,1,13.57,13.57,13.73,13.73,0,0,1-13.57-13.57m-5.24,0a18.83,18.83,0,1,0,18.81-18.91,18.69,18.69,0,0,0-18.81,18.91m-37.92,17.29a1,1,0,0,0,1,1H387a1,1,0,0,0,1-1V408.07H388l22.73,27h1.36a1,1,0,0,0,1-1V398.9a1,1,0,0,0-1-1h-3.35a1,1,0,0,0-1,1v24.78h0L385,397.38h-1.31a1,1,0,0,0-1,.95Zm-29-11.47,6.39-14.36h.26l6.44,14.36ZM344,434.57h3.3a1.32,1.32,0,0,0,1.2-.78c1.05-2.41,2.15-4.77,3.19-7.18h17.14l3.24,7.18a1.22,1.22,0,0,0,1.21.78h3.3a.93.93,0,0,0,.89-1.36l-16-35.25a1.25,1.25,0,0,0-.89-.58h-.52a1.23,1.23,0,0,0-.89.58L343.1,433.21a.92.92,0,0,0,.89,1.36m-24.72-1a1,1,0,0,0,1,1h18.65a1,1,0,0,0,1-1V430.7a1,1,0,0,0-1-1h-14.2V398.9a1,1,0,0,0-1-1h-3.46a1,1,0,0,0-1,1Zm-15.61,0a1,1,0,0,0,1,1h3.46a1,1,0,0,0,1-1V398.9a1,1,0,0,0-1-1h-3.46a1,1,0,0,0-1,1Zm-48-.21a.93.93,0,0,0,1,1.2H260a1,1,0,0,0,.94-.73l3.77-23.41H265l9.48,24.09a1,1,0,0,0,.89.58h.94a.89.89,0,0,0,.89-.58l9.43-24.09h.16l3.88,23.41a1.07,1.07,0,0,0,1,.73H295a.89.89,0,0,0,.95-1.2l-6.44-35.2a1.07,1.07,0,0,0-.95-.79h-.84a1,1,0,0,0-.89.58L276,424.72h-.21L264.79,398a1.06,1.06,0,0,0-.89-.58h-.84a1.07,1.07,0,0,0-.94.79Z" transform="translate(-13.5 -269.31)"/><path class="cls-2" d="M696.7,346.93a17.18,17.18,0,1,1,17.14,17.13,17.32,17.32,0,0,1-17.14-17.13m-9.73,0a26.9,26.9,0,1,0,26.87-27,26.7,26.7,0,0,0-26.87,27m-52.15,0a26.83,26.83,0,0,0,27,26.86A25.7,25.7,0,0,0,680,366.53a1.43,1.43,0,0,0,.07-2l-4.64-4.78a1.37,1.37,0,0,0-1.87,0A18,18,0,0,1,662.13,364c-9.58,0-16.76-7.93-16.76-17.28s7.11-17.44,16.69-17.44a17.73,17.73,0,0,1,11.52,4.41,1.2,1.2,0,0,0,1.87,0L680,329a1.38,1.38,0,0,0-.08-2.09,25.31,25.31,0,0,0-18.11-7,27,27,0,0,0-27,27m-19.6,24.69a1.47,1.47,0,0,0,1.42,1.42h7a1.47,1.47,0,0,0,1.42-1.42V322.09a1.48,1.48,0,0,0-1.42-1.43h-7a1.48,1.48,0,0,0-1.42,1.43Zm-57.09,0a1.47,1.47,0,0,0,1.42,1.42h6.81a1.42,1.42,0,0,0,1.42-1.42V339.44h.07l31.28,34.35h1.8a1.41,1.41,0,0,0,1.42-1.35V322.09a1.48,1.48,0,0,0-1.42-1.43H594a1.43,1.43,0,0,0-1.42,1.43V353h-.07l-31.13-33.07h-1.87a1.4,1.4,0,0,0-1.42,1.34ZM503,346.93a26.83,26.83,0,0,0,27,26.86,25.67,25.67,0,0,0,18.18-7.26,1.42,1.42,0,0,0,.08-2l-4.64-4.78a1.37,1.37,0,0,0-1.87,0A18,18,0,0,1,530.29,364c-9.58,0-16.76-7.93-16.76-17.28s7.11-17.44,16.69-17.44a17.73,17.73,0,0,1,11.52,4.41,1.2,1.2,0,0,0,1.87,0l4.56-4.71a1.39,1.39,0,0,0-.07-2.09,25.31,25.31,0,0,0-18.11-7,27,27,0,0,0-27,27m-40.93,24.69a1.42,1.42,0,0,0,1.42,1.42h30.46a1.42,1.42,0,0,0,1.42-1.42v-6.13a1.43,1.43,0,0,0-1.42-1.43H471.78V351h18.48a1.42,1.42,0,0,0,1.42-1.42v-6.21a1.48,1.48,0,0,0-1.42-1.43H471.78V329.64h22.15a1.42,1.42,0,0,0,1.42-1.42v-6.13a1.43,1.43,0,0,0-1.42-1.43H463.47a1.43,1.43,0,0,0-1.42,1.43Zm-31.2,0a1.47,1.47,0,0,0,1.42,1.42h7a1.47,1.47,0,0,0,1.42-1.42v-42H452.1a1.42,1.42,0,0,0,1.42-1.42v-6.13a1.43,1.43,0,0,0-1.42-1.43H419.4a1.43,1.43,0,0,0-1.42,1.43v6.13a1.42,1.42,0,0,0,1.42,1.42h11.45Zm-32.1,0a1.47,1.47,0,0,0,1.42,1.42h7a1.47,1.47,0,0,0,1.42-1.42V322.09a1.48,1.48,0,0,0-1.42-1.43h-7a1.48,1.48,0,0,0-1.42,1.43Zm-40,0a1.42,1.42,0,0,0,1.42,1.42h27.39a1.42,1.42,0,0,0,1.42-1.42v-6.13a1.43,1.43,0,0,0-1.42-1.43H368.45v-42a1.48,1.48,0,0,0-1.43-1.43h-6.88a1.43,1.43,0,0,0-1.42,1.43Zm-51.93-24.69a17.18,17.18,0,1,1,17.13,17.13,17.31,17.31,0,0,1-17.13-17.13m-9.73,0a26.9,26.9,0,1,0,26.86-27,26.7,26.7,0,0,0-26.86,27m-31.72-2v-15H274a7.46,7.46,0,0,1,7.7,7.26,7.71,7.71,0,0,1-7.7,7.78Zm-9.73,26.71A1.42,1.42,0,0,0,257,373h6.88a1.48,1.48,0,0,0,1.43-1.42V354h9.35a16.69,16.69,0,1,0-.07-33.38H257a1.43,1.43,0,0,0-1.42,1.43Z" transform="translate(-13.5 -269.31)"/></svg>